<?xml version="1.0" encoding="utf-8" standalone="no"?>
<!DOCTYPE svg PUBLIC "-//W3C//DTD SVG 1.1//EN"
  "http://www.w3.org/Graphics/SVG/1.1/DTD/svg11.dtd">
<svg xmlns:xlink="http://www.w3.org/1999/xlink" width="720pt" height="504pt" viewBox="0 0 720 504" xmlns="http://www.w3.org/2000/svg" version="1.1">
 <metadata>
  <rdf:RDF xmlns:dc="http://purl.org/dc/elements/1.1/" xmlns:cc="http://creativecommons.org/ns#" xmlns:rdf="http://www.w3.org/1999/02/22-rdf-syntax-ns#">
   <cc:Work>
    <dc:type rdf:resource="http://purl.org/dc/dcmitype/StillImage"/>
    <dc:date>2026-03-29T20:23:30.103301</dc:date>
    <dc:format>image/svg+xml</dc:format>
    <dc:creator>
     <cc:Agent>
      <dc:title>Matplotlib v3.5.3, https://matplotlib.org/</dc:title>
     </cc:Agent>
    </dc:creator>
   </cc:Work>
  </rdf:RDF>
 </metadata>
 <defs>
  <style type="text/css">*{stroke-linejoin: round; stroke-linecap: butt}</style>
 </defs>
 <g id="figure_1">
  <g id="patch_1">
   <path d="M 0 504 
L 720 504 
L 720 0 
L 0 0 
z
" style="fill: #ffffff"/>
  </g>
  <g id="axes_1">
   <g id="patch_2">
    <path d="M 90 448.56 
L 648 448.56 
L 648 60.48 
L 90 60.48 
z
" style="fill: #ffffff"/>
   </g>
   <g id="matplotlib.axis_1">
    <g id="xtick_1">
     <g id="line2d_1">
      <defs>
       <path id="mf5282f0a56" d="M 0 0 
L 0 3.5 
" style="stroke: #000000; stroke-width: 0.8"/>
      </defs>
      <g>
       <use xlink:href="#mf5282f0a56" x="129.107326" y="448.56" style="stroke: #000000; stroke-width: 0.8"/>
      </g>
     </g>
     <g id="text_1">
      <!-- $\mathdefault{10^{-1}}$ -->
      <g transform="translate(117.357326 463.158437)scale(0.1 -0.1)">
       <defs>
        <path id="DejaVuSans-31" d="M 794 531 
L 1825 531 
L 1825 4091 
L 703 3866 
L 703 4441 
L 1819 4666 
L 2450 4666 
L 2450 531 
L 3481 531 
L 3481 0 
L 794 0 
L 794 531 
z
" transform="scale(0.015625)"/>
        <path id="DejaVuSans-30" d="M 2034 4250 
Q 1547 4250 1301 3770 
Q 1056 3291 1056 2328 
Q 1056 1369 1301 889 
Q 1547 409 2034 409 
Q 2525 409 2770 889 
Q 3016 1369 3016 2328 
Q 3016 3291 2770 3770 
Q 2525 4250 2034 4250 
z
M 2034 4750 
Q 2819 4750 3233 4129 
Q 3647 3509 3647 2328 
Q 3647 1150 3233 529 
Q 2819 -91 2034 -91 
Q 1250 -91 836 529 
Q 422 1150 422 2328 
Q 422 3509 836 4129 
Q 1250 4750 2034 4750 
z
" transform="scale(0.015625)"/>
        <path id="DejaVuSans-2212" d="M 678 2272 
L 4684 2272 
L 4684 1741 
L 678 1741 
L 678 2272 
z
" transform="scale(0.015625)"/>
       </defs>
       <use xlink:href="#DejaVuSans-31" transform="translate(0 0.684375)"/>
       <use xlink:href="#DejaVuSans-30" transform="translate(63.623047 0.684375)"/>
       <use xlink:href="#DejaVuSans-2212" transform="translate(128.203125 38.965625)scale(0.7)"/>
       <use xlink:href="#DejaVuSans-31" transform="translate(186.855469 38.965625)scale(0.7)"/>
      </g>
     </g>
    </g>
    <g id="xtick_2">
     <g id="line2d_2">
      <g>
       <use xlink:href="#mf5282f0a56" x="207.156003" y="448.56" style="stroke: #000000; stroke-width: 0.8"/>
      </g>
     </g>
     <g id="text_2">
      <!-- $\mathdefault{10^{0}}$ -->
      <g transform="translate(198.356003 463.158437)scale(0.1 -0.1)">
       <use xlink:href="#DejaVuSans-31" transform="translate(0 0.765625)"/>
       <use xlink:href="#DejaVuSans-30" transform="translate(63.623047 0.765625)"/>
       <use xlink:href="#DejaVuSans-30" transform="translate(128.203125 39.046875)scale(0.7)"/>
      </g>
     </g>
    </g>
    <g id="xtick_3">
     <g id="line2d_3">
      <g>
       <use xlink:href="#mf5282f0a56" x="285.20468" y="448.56" style="stroke: #000000; stroke-width: 0.8"/>
      </g>
     </g>
     <g id="text_3">
      <!-- $\mathdefault{10^{1}}$ -->
      <g transform="translate(276.40468 463.158437)scale(0.1 -0.1)">
       <use xlink:href="#DejaVuSans-31" transform="translate(0 0.684375)"/>
       <use xlink:href="#DejaVuSans-30" transform="translate(63.623047 0.684375)"/>
       <use xlink:href="#DejaVuSans-31" transform="translate(128.203125 38.965625)scale(0.7)"/>
      </g>
     </g>
    </g>
    <g id="xtick_4">
     <g id="line2d_4">
      <g>
       <use xlink:href="#mf5282f0a56" x="363.253358" y="448.56" style="stroke: #000000; stroke-width: 0.8"/>
      </g>
     </g>
     <g id="text_4">
      <!-- $\mathdefault{10^{2}}$ -->
      <g transform="translate(354.453358 463.158437)scale(0.1 -0.1)">
       <defs>
        <path id="DejaVuSans-32" d="M 1228 531 
L 3431 531 
L 3431 0 
L 469 0 
L 469 531 
Q 828 903 1448 1529 
Q 2069 2156 2228 2338 
Q 2531 2678 2651 2914 
Q 2772 3150 2772 3378 
Q 2772 3750 2511 3984 
Q 2250 4219 1831 4219 
Q 1534 4219 1204 4116 
Q 875 4013 500 3803 
L 500 4441 
Q 881 4594 1212 4672 
Q 1544 4750 1819 4750 
Q 2544 4750 2975 4387 
Q 3406 4025 3406 3419 
Q 3406 3131 3298 2873 
Q 3191 2616 2906 2266 
Q 2828 2175 2409 1742 
Q 1991 1309 1228 531 
z
" transform="scale(0.015625)"/>
       </defs>
       <use xlink:href="#DejaVuSans-31" transform="translate(0 0.765625)"/>
       <use xlink:href="#DejaVuSans-30" transform="translate(63.623047 0.765625)"/>
       <use xlink:href="#DejaVuSans-32" transform="translate(128.203125 39.046875)scale(0.7)"/>
      </g>
     </g>
    </g>
    <g id="xtick_5">
     <g id="line2d_5">
      <g>
       <use xlink:href="#mf5282f0a56" x="441.302035" y="448.56" style="stroke: #000000; stroke-width: 0.8"/>
      </g>
     </g>
     <g id="text_5">
      <!-- $\mathdefault{10^{3}}$ -->
      <g transform="translate(432.502035 463.158437)scale(0.1 -0.1)">
       <defs>
        <path id="DejaVuSans-33" d="M 2597 2516 
Q 3050 2419 3304 2112 
Q 3559 1806 3559 1356 
Q 3559 666 3084 287 
Q 2609 -91 1734 -91 
Q 1441 -91 1130 -33 
Q 819 25 488 141 
L 488 750 
Q 750 597 1062 519 
Q 1375 441 1716 441 
Q 2309 441 2620 675 
Q 2931 909 2931 1356 
Q 2931 1769 2642 2001 
Q 2353 2234 1838 2234 
L 1294 2234 
L 1294 2753 
L 1863 2753 
Q 2328 2753 2575 2939 
Q 2822 3125 2822 3475 
Q 2822 3834 2567 4026 
Q 2313 4219 1838 4219 
Q 1578 4219 1281 4162 
Q 984 4106 628 3988 
L 628 4550 
Q 988 4650 1302 4700 
Q 1616 4750 1894 4750 
Q 2613 4750 3031 4423 
Q 3450 4097 3450 3541 
Q 3450 3153 3228 2886 
Q 3006 2619 2597 2516 
z
" transform="scale(0.015625)"/>
       </defs>
       <use xlink:href="#DejaVuSans-31" transform="translate(0 0.765625)"/>
       <use xlink:href="#DejaVuSans-30" transform="translate(63.623047 0.765625)"/>
       <use xlink:href="#DejaVuSans-33" transform="translate(128.203125 39.046875)scale(0.7)"/>
      </g>
     </g>
    </g>
    <g id="xtick_6">
     <g id="line2d_6">
      <g>
       <use xlink:href="#mf5282f0a56" x="519.350712" y="448.56" style="stroke: #000000; stroke-width: 0.8"/>
      </g>
     </g>
     <g id="text_6">
      <!-- $\mathdefault{10^{4}}$ -->
      <g transform="translate(510.550712 463.158437)scale(0.1 -0.1)">
       <defs>
        <path id="DejaVuSans-34" d="M 2419 4116 
L 825 1625 
L 2419 1625 
L 2419 4116 
z
M 2253 4666 
L 3047 4666 
L 3047 1625 
L 3713 1625 
L 3713 1100 
L 3047 1100 
L 3047 0 
L 2419 0 
L 2419 1100 
L 313 1100 
L 313 1709 
L 2253 4666 
z
" transform="scale(0.015625)"/>
       </defs>
       <use xlink:href="#DejaVuSans-31" transform="translate(0 0.684375)"/>
       <use xlink:href="#DejaVuSans-30" transform="translate(63.623047 0.684375)"/>
       <use xlink:href="#DejaVuSans-34" transform="translate(128.203125 38.965625)scale(0.7)"/>
      </g>
     </g>
    </g>
    <g id="xtick_7">
     <g id="line2d_7">
      <g>
       <use xlink:href="#mf5282f0a56" x="597.399389" y="448.56" style="stroke: #000000; stroke-width: 0.8"/>
      </g>
     </g>
     <g id="text_7">
      <!-- $\mathdefault{10^{5}}$ -->
      <g transform="translate(588.599389 463.158437)scale(0.1 -0.1)">
       <defs>
        <path id="DejaVuSans-35" d="M 691 4666 
L 3169 4666 
L 3169 4134 
L 1269 4134 
L 1269 2991 
Q 1406 3038 1543 3061 
Q 1681 3084 1819 3084 
Q 2600 3084 3056 2656 
Q 3513 2228 3513 1497 
Q 3513 744 3044 326 
Q 2575 -91 1722 -91 
Q 1428 -91 1123 -41 
Q 819 9 494 109 
L 494 744 
Q 775 591 1075 516 
Q 1375 441 1709 441 
Q 2250 441 2565 725 
Q 2881 1009 2881 1497 
Q 2881 1984 2565 2268 
Q 2250 2553 1709 2553 
Q 1456 2553 1204 2497 
Q 953 2441 691 2322 
L 691 4666 
z
" transform="scale(0.015625)"/>
       </defs>
       <use xlink:href="#DejaVuSans-31" transform="translate(0 0.684375)"/>
       <use xlink:href="#DejaVuSans-30" transform="translate(63.623047 0.684375)"/>
       <use xlink:href="#DejaVuSans-35" transform="translate(128.203125 38.965625)scale(0.7)"/>
      </g>
     </g>
    </g>
    <g id="xtick_8">
     <g id="line2d_8">
      <defs>
       <path id="mdc0ff06d64" d="M 0 0 
L 0 2 
" style="stroke: #000000; stroke-width: 0.6"/>
      </defs>
      <g>
       <use xlink:href="#mdc0ff06d64" x="98.048635" y="448.56" style="stroke: #000000; stroke-width: 0.6"/>
      </g>
     </g>
    </g>
    <g id="xtick_9">
     <g id="line2d_9">
      <g>
       <use xlink:href="#mdc0ff06d64" x="105.612333" y="448.56" style="stroke: #000000; stroke-width: 0.6"/>
      </g>
     </g>
    </g>
    <g id="xtick_10">
     <g id="line2d_10">
      <g>
       <use xlink:href="#mdc0ff06d64" x="111.792325" y="448.56" style="stroke: #000000; stroke-width: 0.6"/>
      </g>
     </g>
    </g>
    <g id="xtick_11">
     <g id="line2d_11">
      <g>
       <use xlink:href="#mdc0ff06d64" x="117.017433" y="448.56" style="stroke: #000000; stroke-width: 0.6"/>
      </g>
     </g>
    </g>
    <g id="xtick_12">
     <g id="line2d_12">
      <g>
       <use xlink:href="#mdc0ff06d64" x="121.543628" y="448.56" style="stroke: #000000; stroke-width: 0.6"/>
      </g>
     </g>
    </g>
    <g id="xtick_13">
     <g id="line2d_13">
      <g>
       <use xlink:href="#mdc0ff06d64" x="125.536015" y="448.56" style="stroke: #000000; stroke-width: 0.6"/>
      </g>
     </g>
    </g>
    <g id="xtick_14">
     <g id="line2d_14">
      <g>
       <use xlink:href="#mdc0ff06d64" x="152.602319" y="448.56" style="stroke: #000000; stroke-width: 0.6"/>
      </g>
     </g>
    </g>
    <g id="xtick_15">
     <g id="line2d_15">
      <g>
       <use xlink:href="#mdc0ff06d64" x="166.346009" y="448.56" style="stroke: #000000; stroke-width: 0.6"/>
      </g>
     </g>
    </g>
    <g id="xtick_16">
     <g id="line2d_16">
      <g>
       <use xlink:href="#mdc0ff06d64" x="176.097312" y="448.56" style="stroke: #000000; stroke-width: 0.6"/>
      </g>
     </g>
    </g>
    <g id="xtick_17">
     <g id="line2d_17">
      <g>
       <use xlink:href="#mdc0ff06d64" x="183.66101" y="448.56" style="stroke: #000000; stroke-width: 0.6"/>
      </g>
     </g>
    </g>
    <g id="xtick_18">
     <g id="line2d_18">
      <g>
       <use xlink:href="#mdc0ff06d64" x="189.841002" y="448.56" style="stroke: #000000; stroke-width: 0.6"/>
      </g>
     </g>
    </g>
    <g id="xtick_19">
     <g id="line2d_19">
      <g>
       <use xlink:href="#mdc0ff06d64" x="195.06611" y="448.56" style="stroke: #000000; stroke-width: 0.6"/>
      </g>
     </g>
    </g>
    <g id="xtick_20">
     <g id="line2d_20">
      <g>
       <use xlink:href="#mdc0ff06d64" x="199.592305" y="448.56" style="stroke: #000000; stroke-width: 0.6"/>
      </g>
     </g>
    </g>
    <g id="xtick_21">
     <g id="line2d_21">
      <g>
       <use xlink:href="#mdc0ff06d64" x="203.584692" y="448.56" style="stroke: #000000; stroke-width: 0.6"/>
      </g>
     </g>
    </g>
    <g id="xtick_22">
     <g id="line2d_22">
      <g>
       <use xlink:href="#mdc0ff06d64" x="230.650996" y="448.56" style="stroke: #000000; stroke-width: 0.6"/>
      </g>
     </g>
    </g>
    <g id="xtick_23">
     <g id="line2d_23">
      <g>
       <use xlink:href="#mdc0ff06d64" x="244.394686" y="448.56" style="stroke: #000000; stroke-width: 0.6"/>
      </g>
     </g>
    </g>
    <g id="xtick_24">
     <g id="line2d_24">
      <g>
       <use xlink:href="#mdc0ff06d64" x="254.145989" y="448.56" style="stroke: #000000; stroke-width: 0.6"/>
      </g>
     </g>
    </g>
    <g id="xtick_25">
     <g id="line2d_25">
      <g>
       <use xlink:href="#mdc0ff06d64" x="261.709688" y="448.56" style="stroke: #000000; stroke-width: 0.6"/>
      </g>
     </g>
    </g>
    <g id="xtick_26">
     <g id="line2d_26">
      <g>
       <use xlink:href="#mdc0ff06d64" x="267.889679" y="448.56" style="stroke: #000000; stroke-width: 0.6"/>
      </g>
     </g>
    </g>
    <g id="xtick_27">
     <g id="line2d_27">
      <g>
       <use xlink:href="#mdc0ff06d64" x="273.114787" y="448.56" style="stroke: #000000; stroke-width: 0.6"/>
      </g>
     </g>
    </g>
    <g id="xtick_28">
     <g id="line2d_28">
      <g>
       <use xlink:href="#mdc0ff06d64" x="277.640982" y="448.56" style="stroke: #000000; stroke-width: 0.6"/>
      </g>
     </g>
    </g>
    <g id="xtick_29">
     <g id="line2d_29">
      <g>
       <use xlink:href="#mdc0ff06d64" x="281.633369" y="448.56" style="stroke: #000000; stroke-width: 0.6"/>
      </g>
     </g>
    </g>
    <g id="xtick_30">
     <g id="line2d_30">
      <g>
       <use xlink:href="#mdc0ff06d64" x="308.699673" y="448.56" style="stroke: #000000; stroke-width: 0.6"/>
      </g>
     </g>
    </g>
    <g id="xtick_31">
     <g id="line2d_31">
      <g>
       <use xlink:href="#mdc0ff06d64" x="322.443363" y="448.56" style="stroke: #000000; stroke-width: 0.6"/>
      </g>
     </g>
    </g>
    <g id="xtick_32">
     <g id="line2d_32">
      <g>
       <use xlink:href="#mdc0ff06d64" x="332.194666" y="448.56" style="stroke: #000000; stroke-width: 0.6"/>
      </g>
     </g>
    </g>
    <g id="xtick_33">
     <g id="line2d_33">
      <g>
       <use xlink:href="#mdc0ff06d64" x="339.758365" y="448.56" style="stroke: #000000; stroke-width: 0.6"/>
      </g>
     </g>
    </g>
    <g id="xtick_34">
     <g id="line2d_34">
      <g>
       <use xlink:href="#mdc0ff06d64" x="345.938356" y="448.56" style="stroke: #000000; stroke-width: 0.6"/>
      </g>
     </g>
    </g>
    <g id="xtick_35">
     <g id="line2d_35">
      <g>
       <use xlink:href="#mdc0ff06d64" x="351.163465" y="448.56" style="stroke: #000000; stroke-width: 0.6"/>
      </g>
     </g>
    </g>
    <g id="xtick_36">
     <g id="line2d_36">
      <g>
       <use xlink:href="#mdc0ff06d64" x="355.689659" y="448.56" style="stroke: #000000; stroke-width: 0.6"/>
      </g>
     </g>
    </g>
    <g id="xtick_37">
     <g id="line2d_37">
      <g>
       <use xlink:href="#mdc0ff06d64" x="359.682046" y="448.56" style="stroke: #000000; stroke-width: 0.6"/>
      </g>
     </g>
    </g>
    <g id="xtick_38">
     <g id="line2d_38">
      <g>
       <use xlink:href="#mdc0ff06d64" x="386.748351" y="448.56" style="stroke: #000000; stroke-width: 0.6"/>
      </g>
     </g>
    </g>
    <g id="xtick_39">
     <g id="line2d_39">
      <g>
       <use xlink:href="#mdc0ff06d64" x="400.49204" y="448.56" style="stroke: #000000; stroke-width: 0.6"/>
      </g>
     </g>
    </g>
    <g id="xtick_40">
     <g id="line2d_40">
      <g>
       <use xlink:href="#mdc0ff06d64" x="410.243344" y="448.56" style="stroke: #000000; stroke-width: 0.6"/>
      </g>
     </g>
    </g>
    <g id="xtick_41">
     <g id="line2d_41">
      <g>
       <use xlink:href="#mdc0ff06d64" x="417.807042" y="448.56" style="stroke: #000000; stroke-width: 0.6"/>
      </g>
     </g>
    </g>
    <g id="xtick_42">
     <g id="line2d_42">
      <g>
       <use xlink:href="#mdc0ff06d64" x="423.987033" y="448.56" style="stroke: #000000; stroke-width: 0.6"/>
      </g>
     </g>
    </g>
    <g id="xtick_43">
     <g id="line2d_43">
      <g>
       <use xlink:href="#mdc0ff06d64" x="429.212142" y="448.56" style="stroke: #000000; stroke-width: 0.6"/>
      </g>
     </g>
    </g>
    <g id="xtick_44">
     <g id="line2d_44">
      <g>
       <use xlink:href="#mdc0ff06d64" x="433.738336" y="448.56" style="stroke: #000000; stroke-width: 0.6"/>
      </g>
     </g>
    </g>
    <g id="xtick_45">
     <g id="line2d_45">
      <g>
       <use xlink:href="#mdc0ff06d64" x="437.730723" y="448.56" style="stroke: #000000; stroke-width: 0.6"/>
      </g>
     </g>
    </g>
    <g id="xtick_46">
     <g id="line2d_46">
      <g>
       <use xlink:href="#mdc0ff06d64" x="464.797028" y="448.56" style="stroke: #000000; stroke-width: 0.6"/>
      </g>
     </g>
    </g>
    <g id="xtick_47">
     <g id="line2d_47">
      <g>
       <use xlink:href="#mdc0ff06d64" x="478.540718" y="448.56" style="stroke: #000000; stroke-width: 0.6"/>
      </g>
     </g>
    </g>
    <g id="xtick_48">
     <g id="line2d_48">
      <g>
       <use xlink:href="#mdc0ff06d64" x="488.292021" y="448.56" style="stroke: #000000; stroke-width: 0.6"/>
      </g>
     </g>
    </g>
    <g id="xtick_49">
     <g id="line2d_49">
      <g>
       <use xlink:href="#mdc0ff06d64" x="495.855719" y="448.56" style="stroke: #000000; stroke-width: 0.6"/>
      </g>
     </g>
    </g>
    <g id="xtick_50">
     <g id="line2d_50">
      <g>
       <use xlink:href="#mdc0ff06d64" x="502.035711" y="448.56" style="stroke: #000000; stroke-width: 0.6"/>
      </g>
     </g>
    </g>
    <g id="xtick_51">
     <g id="line2d_51">
      <g>
       <use xlink:href="#mdc0ff06d64" x="507.260819" y="448.56" style="stroke: #000000; stroke-width: 0.6"/>
      </g>
     </g>
    </g>
    <g id="xtick_52">
     <g id="line2d_52">
      <g>
       <use xlink:href="#mdc0ff06d64" x="511.787014" y="448.56" style="stroke: #000000; stroke-width: 0.6"/>
      </g>
     </g>
    </g>
    <g id="xtick_53">
     <g id="line2d_53">
      <g>
       <use xlink:href="#mdc0ff06d64" x="515.7794" y="448.56" style="stroke: #000000; stroke-width: 0.6"/>
      </g>
     </g>
    </g>
    <g id="xtick_54">
     <g id="line2d_54">
      <g>
       <use xlink:href="#mdc0ff06d64" x="542.845705" y="448.56" style="stroke: #000000; stroke-width: 0.6"/>
      </g>
     </g>
    </g>
    <g id="xtick_55">
     <g id="line2d_55">
      <g>
       <use xlink:href="#mdc0ff06d64" x="556.589395" y="448.56" style="stroke: #000000; stroke-width: 0.6"/>
      </g>
     </g>
    </g>
    <g id="xtick_56">
     <g id="line2d_56">
      <g>
       <use xlink:href="#mdc0ff06d64" x="566.340698" y="448.56" style="stroke: #000000; stroke-width: 0.6"/>
      </g>
     </g>
    </g>
    <g id="xtick_57">
     <g id="line2d_57">
      <g>
       <use xlink:href="#mdc0ff06d64" x="573.904396" y="448.56" style="stroke: #000000; stroke-width: 0.6"/>
      </g>
     </g>
    </g>
    <g id="xtick_58">
     <g id="line2d_58">
      <g>
       <use xlink:href="#mdc0ff06d64" x="580.084388" y="448.56" style="stroke: #000000; stroke-width: 0.6"/>
      </g>
     </g>
    </g>
    <g id="xtick_59">
     <g id="line2d_59">
      <g>
       <use xlink:href="#mdc0ff06d64" x="585.309496" y="448.56" style="stroke: #000000; stroke-width: 0.6"/>
      </g>
     </g>
    </g>
    <g id="xtick_60">
     <g id="line2d_60">
      <g>
       <use xlink:href="#mdc0ff06d64" x="589.835691" y="448.56" style="stroke: #000000; stroke-width: 0.6"/>
      </g>
     </g>
    </g>
    <g id="xtick_61">
     <g id="line2d_61">
      <g>
       <use xlink:href="#mdc0ff06d64" x="593.828077" y="448.56" style="stroke: #000000; stroke-width: 0.6"/>
      </g>
     </g>
    </g>
    <g id="xtick_62">
     <g id="line2d_62">
      <g>
       <use xlink:href="#mdc0ff06d64" x="620.894382" y="448.56" style="stroke: #000000; stroke-width: 0.6"/>
      </g>
     </g>
    </g>
    <g id="xtick_63">
     <g id="line2d_63">
      <g>
       <use xlink:href="#mdc0ff06d64" x="634.638072" y="448.56" style="stroke: #000000; stroke-width: 0.6"/>
      </g>
     </g>
    </g>
    <g id="xtick_64">
     <g id="line2d_64">
      <g>
       <use xlink:href="#mdc0ff06d64" x="644.389375" y="448.56" style="stroke: #000000; stroke-width: 0.6"/>
      </g>
     </g>
    </g>
    <g id="text_8">
     <!-- Time (years ago) -->
     <g transform="translate(326.628906 476.836563)scale(0.1 -0.1)">
      <defs>
       <path id="DejaVuSans-54" d="M -19 4666 
L 3928 4666 
L 3928 4134 
L 2272 4134 
L 2272 0 
L 1638 0 
L 1638 4134 
L -19 4134 
L -19 4666 
z
" transform="scale(0.015625)"/>
       <path id="DejaVuSans-69" d="M 603 3500 
L 1178 3500 
L 1178 0 
L 603 0 
L 603 3500 
z
M 603 4863 
L 1178 4863 
L 1178 4134 
L 603 4134 
L 603 4863 
z
" transform="scale(0.015625)"/>
       <path id="DejaVuSans-6d" d="M 3328 2828 
Q 3544 3216 3844 3400 
Q 4144 3584 4550 3584 
Q 5097 3584 5394 3201 
Q 5691 2819 5691 2113 
L 5691 0 
L 5113 0 
L 5113 2094 
Q 5113 2597 4934 2840 
Q 4756 3084 4391 3084 
Q 3944 3084 3684 2787 
Q 3425 2491 3425 1978 
L 3425 0 
L 2847 0 
L 2847 2094 
Q 2847 2600 2669 2842 
Q 2491 3084 2119 3084 
Q 1678 3084 1418 2786 
Q 1159 2488 1159 1978 
L 1159 0 
L 581 0 
L 581 3500 
L 1159 3500 
L 1159 2956 
Q 1356 3278 1631 3431 
Q 1906 3584 2284 3584 
Q 2666 3584 2933 3390 
Q 3200 3197 3328 2828 
z
" transform="scale(0.015625)"/>
       <path id="DejaVuSans-65" d="M 3597 1894 
L 3597 1613 
L 953 1613 
Q 991 1019 1311 708 
Q 1631 397 2203 397 
Q 2534 397 2845 478 
Q 3156 559 3463 722 
L 3463 178 
Q 3153 47 2828 -22 
Q 2503 -91 2169 -91 
Q 1331 -91 842 396 
Q 353 884 353 1716 
Q 353 2575 817 3079 
Q 1281 3584 2069 3584 
Q 2775 3584 3186 3129 
Q 3597 2675 3597 1894 
z
M 3022 2063 
Q 3016 2534 2758 2815 
Q 2500 3097 2075 3097 
Q 1594 3097 1305 2825 
Q 1016 2553 972 2059 
L 3022 2063 
z
" transform="scale(0.015625)"/>
       <path id="DejaVuSans-20" transform="scale(0.015625)"/>
       <path id="DejaVuSans-28" d="M 1984 4856 
Q 1566 4138 1362 3434 
Q 1159 2731 1159 2009 
Q 1159 1288 1364 580 
Q 1569 -128 1984 -844 
L 1484 -844 
Q 1016 -109 783 600 
Q 550 1309 550 2009 
Q 550 2706 781 3412 
Q 1013 4119 1484 4856 
L 1984 4856 
z
" transform="scale(0.015625)"/>
       <path id="DejaVuSans-79" d="M 2059 -325 
Q 1816 -950 1584 -1140 
Q 1353 -1331 966 -1331 
L 506 -1331 
L 506 -850 
L 844 -850 
Q 1081 -850 1212 -737 
Q 1344 -625 1503 -206 
L 1606 56 
L 191 3500 
L 800 3500 
L 1894 763 
L 2988 3500 
L 3597 3500 
L 2059 -325 
z
" transform="scale(0.015625)"/>
       <path id="DejaVuSans-61" d="M 2194 1759 
Q 1497 1759 1228 1600 
Q 959 1441 959 1056 
Q 959 750 1161 570 
Q 1363 391 1709 391 
Q 2188 391 2477 730 
Q 2766 1069 2766 1631 
L 2766 1759 
L 2194 1759 
z
M 3341 1997 
L 3341 0 
L 2766 0 
L 2766 531 
Q 2569 213 2275 61 
Q 1981 -91 1556 -91 
Q 1019 -91 701 211 
Q 384 513 384 1019 
Q 384 1609 779 1909 
Q 1175 2209 1959 2209 
L 2766 2209 
L 2766 2266 
Q 2766 2663 2505 2880 
Q 2244 3097 1772 3097 
Q 1472 3097 1187 3025 
Q 903 2953 641 2809 
L 641 3341 
Q 956 3463 1253 3523 
Q 1550 3584 1831 3584 
Q 2591 3584 2966 3190 
Q 3341 2797 3341 1997 
z
" transform="scale(0.015625)"/>
       <path id="DejaVuSans-72" d="M 2631 2963 
Q 2534 3019 2420 3045 
Q 2306 3072 2169 3072 
Q 1681 3072 1420 2755 
Q 1159 2438 1159 1844 
L 1159 0 
L 581 0 
L 581 3500 
L 1159 3500 
L 1159 2956 
Q 1341 3275 1631 3429 
Q 1922 3584 2338 3584 
Q 2397 3584 2469 3576 
Q 2541 3569 2628 3553 
L 2631 2963 
z
" transform="scale(0.015625)"/>
       <path id="DejaVuSans-73" d="M 2834 3397 
L 2834 2853 
Q 2591 2978 2328 3040 
Q 2066 3103 1784 3103 
Q 1356 3103 1142 2972 
Q 928 2841 928 2578 
Q 928 2378 1081 2264 
Q 1234 2150 1697 2047 
L 1894 2003 
Q 2506 1872 2764 1633 
Q 3022 1394 3022 966 
Q 3022 478 2636 193 
Q 2250 -91 1575 -91 
Q 1294 -91 989 -36 
Q 684 19 347 128 
L 347 722 
Q 666 556 975 473 
Q 1284 391 1588 391 
Q 1994 391 2212 530 
Q 2431 669 2431 922 
Q 2431 1156 2273 1281 
Q 2116 1406 1581 1522 
L 1381 1569 
Q 847 1681 609 1914 
Q 372 2147 372 2553 
Q 372 3047 722 3315 
Q 1072 3584 1716 3584 
Q 2034 3584 2315 3537 
Q 2597 3491 2834 3397 
z
" transform="scale(0.015625)"/>
       <path id="DejaVuSans-67" d="M 2906 1791 
Q 2906 2416 2648 2759 
Q 2391 3103 1925 3103 
Q 1463 3103 1205 2759 
Q 947 2416 947 1791 
Q 947 1169 1205 825 
Q 1463 481 1925 481 
Q 2391 481 2648 825 
Q 2906 1169 2906 1791 
z
M 3481 434 
Q 3481 -459 3084 -895 
Q 2688 -1331 1869 -1331 
Q 1566 -1331 1297 -1286 
Q 1028 -1241 775 -1147 
L 775 -588 
Q 1028 -725 1275 -790 
Q 1522 -856 1778 -856 
Q 2344 -856 2625 -561 
Q 2906 -266 2906 331 
L 2906 616 
Q 2728 306 2450 153 
Q 2172 0 1784 0 
Q 1141 0 747 490 
Q 353 981 353 1791 
Q 353 2603 747 3093 
Q 1141 3584 1784 3584 
Q 2172 3584 2450 3431 
Q 2728 3278 2906 2969 
L 2906 3500 
L 3481 3500 
L 3481 434 
z
" transform="scale(0.015625)"/>
       <path id="DejaVuSans-6f" d="M 1959 3097 
Q 1497 3097 1228 2736 
Q 959 2375 959 1747 
Q 959 1119 1226 758 
Q 1494 397 1959 397 
Q 2419 397 2687 759 
Q 2956 1122 2956 1747 
Q 2956 2369 2687 2733 
Q 2419 3097 1959 3097 
z
M 1959 3584 
Q 2709 3584 3137 3096 
Q 3566 2609 3566 1747 
Q 3566 888 3137 398 
Q 2709 -91 1959 -91 
Q 1206 -91 779 398 
Q 353 888 353 1747 
Q 353 2609 779 3096 
Q 1206 3584 1959 3584 
z
" transform="scale(0.015625)"/>
       <path id="DejaVuSans-29" d="M 513 4856 
L 1013 4856 
Q 1481 4119 1714 3412 
Q 1947 2706 1947 2009 
Q 1947 1309 1714 600 
Q 1481 -109 1013 -844 
L 513 -844 
Q 928 -128 1133 580 
Q 1338 1288 1338 2009 
Q 1338 2731 1133 3434 
Q 928 4138 513 4856 
z
" transform="scale(0.015625)"/>
      </defs>
      <use xlink:href="#DejaVuSans-54"/>
      <use xlink:href="#DejaVuSans-69" x="57.958984"/>
      <use xlink:href="#DejaVuSans-6d" x="85.742188"/>
      <use xlink:href="#DejaVuSans-65" x="183.154297"/>
      <use xlink:href="#DejaVuSans-20" x="244.677734"/>
      <use xlink:href="#DejaVuSans-28" x="276.464844"/>
      <use xlink:href="#DejaVuSans-79" x="315.478516"/>
      <use xlink:href="#DejaVuSans-65" x="374.658203"/>
      <use xlink:href="#DejaVuSans-61" x="436.181641"/>
      <use xlink:href="#DejaVuSans-72" x="497.460938"/>
      <use xlink:href="#DejaVuSans-73" x="538.574219"/>
      <use xlink:href="#DejaVuSans-20" x="590.673828"/>
      <use xlink:href="#DejaVuSans-61" x="622.460938"/>
      <use xlink:href="#DejaVuSans-67" x="683.740234"/>
      <use xlink:href="#DejaVuSans-6f" x="747.216797"/>
      <use xlink:href="#DejaVuSans-29" x="808.398438"/>
     </g>
    </g>
   </g>
   <g id="matplotlib.axis_2">
    <g id="ytick_1">
     <g id="line2d_65">
      <defs>
       <path id="m280d86ba5f" d="M 0 0 
L -3.5 0 
" style="stroke: #000000; stroke-width: 0.8"/>
      </defs>
      <g>
       <use xlink:href="#m280d86ba5f" x="90" y="422.612612" style="stroke: #000000; stroke-width: 0.8"/>
      </g>
     </g>
     <g id="text_9">
      <!-- $\mathdefault{10^{3}}$ -->
      <g transform="translate(65.4 426.41183)scale(0.1 -0.1)">
       <use xlink:href="#DejaVuSans-31" transform="translate(0 0.765625)"/>
       <use xlink:href="#DejaVuSans-30" transform="translate(63.623047 0.765625)"/>
       <use xlink:href="#DejaVuSans-33" transform="translate(128.203125 39.046875)scale(0.7)"/>
      </g>
     </g>
    </g>
    <g id="ytick_2">
     <g id="line2d_66">
      <g>
       <use xlink:href="#m280d86ba5f" x="90" y="367.843182" style="stroke: #000000; stroke-width: 0.8"/>
      </g>
     </g>
     <g id="text_10">
      <!-- $\mathdefault{10^{4}}$ -->
      <g transform="translate(65.4 371.642401)scale(0.1 -0.1)">
       <use xlink:href="#DejaVuSans-31" transform="translate(0 0.684375)"/>
       <use xlink:href="#DejaVuSans-30" transform="translate(63.623047 0.684375)"/>
       <use xlink:href="#DejaVuSans-34" transform="translate(128.203125 38.965625)scale(0.7)"/>
      </g>
     </g>
    </g>
    <g id="ytick_3">
     <g id="line2d_67">
      <g>
       <use xlink:href="#m280d86ba5f" x="90" y="313.073753" style="stroke: #000000; stroke-width: 0.8"/>
      </g>
     </g>
     <g id="text_11">
      <!-- $\mathdefault{10^{5}}$ -->
      <g transform="translate(65.4 316.872972)scale(0.1 -0.1)">
       <use xlink:href="#DejaVuSans-31" transform="translate(0 0.684375)"/>
       <use xlink:href="#DejaVuSans-30" transform="translate(63.623047 0.684375)"/>
       <use xlink:href="#DejaVuSans-35" transform="translate(128.203125 38.965625)scale(0.7)"/>
      </g>
     </g>
    </g>
    <g id="ytick_4">
     <g id="line2d_68">
      <g>
       <use xlink:href="#m280d86ba5f" x="90" y="258.304324" style="stroke: #000000; stroke-width: 0.8"/>
      </g>
     </g>
     <g id="text_12">
      <!-- $\mathdefault{10^{6}}$ -->
      <g transform="translate(65.4 262.103542)scale(0.1 -0.1)">
       <defs>
        <path id="DejaVuSans-36" d="M 2113 2584 
Q 1688 2584 1439 2293 
Q 1191 2003 1191 1497 
Q 1191 994 1439 701 
Q 1688 409 2113 409 
Q 2538 409 2786 701 
Q 3034 994 3034 1497 
Q 3034 2003 2786 2293 
Q 2538 2584 2113 2584 
z
M 3366 4563 
L 3366 3988 
Q 3128 4100 2886 4159 
Q 2644 4219 2406 4219 
Q 1781 4219 1451 3797 
Q 1122 3375 1075 2522 
Q 1259 2794 1537 2939 
Q 1816 3084 2150 3084 
Q 2853 3084 3261 2657 
Q 3669 2231 3669 1497 
Q 3669 778 3244 343 
Q 2819 -91 2113 -91 
Q 1303 -91 875 529 
Q 447 1150 447 2328 
Q 447 3434 972 4092 
Q 1497 4750 2381 4750 
Q 2619 4750 2861 4703 
Q 3103 4656 3366 4563 
z
" transform="scale(0.015625)"/>
       </defs>
       <use xlink:href="#DejaVuSans-31" transform="translate(0 0.765625)"/>
       <use xlink:href="#DejaVuSans-30" transform="translate(63.623047 0.765625)"/>
       <use xlink:href="#DejaVuSans-36" transform="translate(128.203125 39.046875)scale(0.7)"/>
      </g>
     </g>
    </g>
    <g id="ytick_5">
     <g id="line2d_69">
      <g>
       <use xlink:href="#m280d86ba5f" x="90" y="203.534894" style="stroke: #000000; stroke-width: 0.8"/>
      </g>
     </g>
     <g id="text_13">
      <!-- $\mathdefault{10^{7}}$ -->
      <g transform="translate(65.4 207.334113)scale(0.1 -0.1)">
       <defs>
        <path id="DejaVuSans-37" d="M 525 4666 
L 3525 4666 
L 3525 4397 
L 1831 0 
L 1172 0 
L 2766 4134 
L 525 4134 
L 525 4666 
z
" transform="scale(0.015625)"/>
       </defs>
       <use xlink:href="#DejaVuSans-31" transform="translate(0 0.684375)"/>
       <use xlink:href="#DejaVuSans-30" transform="translate(63.623047 0.684375)"/>
       <use xlink:href="#DejaVuSans-37" transform="translate(128.203125 38.965625)scale(0.7)"/>
      </g>
     </g>
    </g>
    <g id="ytick_6">
     <g id="line2d_70">
      <g>
       <use xlink:href="#m280d86ba5f" x="90" y="148.765465" style="stroke: #000000; stroke-width: 0.8"/>
      </g>
     </g>
     <g id="text_14">
      <!-- $\mathdefault{10^{8}}$ -->
      <g transform="translate(65.4 152.564684)scale(0.1 -0.1)">
       <defs>
        <path id="DejaVuSans-38" d="M 2034 2216 
Q 1584 2216 1326 1975 
Q 1069 1734 1069 1313 
Q 1069 891 1326 650 
Q 1584 409 2034 409 
Q 2484 409 2743 651 
Q 3003 894 3003 1313 
Q 3003 1734 2745 1975 
Q 2488 2216 2034 2216 
z
M 1403 2484 
Q 997 2584 770 2862 
Q 544 3141 544 3541 
Q 544 4100 942 4425 
Q 1341 4750 2034 4750 
Q 2731 4750 3128 4425 
Q 3525 4100 3525 3541 
Q 3525 3141 3298 2862 
Q 3072 2584 2669 2484 
Q 3125 2378 3379 2068 
Q 3634 1759 3634 1313 
Q 3634 634 3220 271 
Q 2806 -91 2034 -91 
Q 1263 -91 848 271 
Q 434 634 434 1313 
Q 434 1759 690 2068 
Q 947 2378 1403 2484 
z
M 1172 3481 
Q 1172 3119 1398 2916 
Q 1625 2713 2034 2713 
Q 2441 2713 2670 2916 
Q 2900 3119 2900 3481 
Q 2900 3844 2670 4047 
Q 2441 4250 2034 4250 
Q 1625 4250 1398 4047 
Q 1172 3844 1172 3481 
z
" transform="scale(0.015625)"/>
       </defs>
       <use xlink:href="#DejaVuSans-31" transform="translate(0 0.765625)"/>
       <use xlink:href="#DejaVuSans-30" transform="translate(63.623047 0.765625)"/>
       <use xlink:href="#DejaVuSans-38" transform="translate(128.203125 39.046875)scale(0.7)"/>
      </g>
     </g>
    </g>
    <g id="ytick_7">
     <g id="line2d_71">
      <g>
       <use xlink:href="#m280d86ba5f" x="90" y="93.996035" style="stroke: #000000; stroke-width: 0.8"/>
      </g>
     </g>
     <g id="text_15">
      <!-- $\mathdefault{10^{9}}$ -->
      <g transform="translate(65.4 97.795254)scale(0.1 -0.1)">
       <defs>
        <path id="DejaVuSans-39" d="M 703 97 
L 703 672 
Q 941 559 1184 500 
Q 1428 441 1663 441 
Q 2288 441 2617 861 
Q 2947 1281 2994 2138 
Q 2813 1869 2534 1725 
Q 2256 1581 1919 1581 
Q 1219 1581 811 2004 
Q 403 2428 403 3163 
Q 403 3881 828 4315 
Q 1253 4750 1959 4750 
Q 2769 4750 3195 4129 
Q 3622 3509 3622 2328 
Q 3622 1225 3098 567 
Q 2575 -91 1691 -91 
Q 1453 -91 1209 -44 
Q 966 3 703 97 
z
M 1959 2075 
Q 2384 2075 2632 2365 
Q 2881 2656 2881 3163 
Q 2881 3666 2632 3958 
Q 2384 4250 1959 4250 
Q 1534 4250 1286 3958 
Q 1038 3666 1038 3163 
Q 1038 2656 1286 2365 
Q 1534 2075 1959 2075 
z
" transform="scale(0.015625)"/>
       </defs>
       <use xlink:href="#DejaVuSans-31" transform="translate(0 0.765625)"/>
       <use xlink:href="#DejaVuSans-30" transform="translate(63.623047 0.765625)"/>
       <use xlink:href="#DejaVuSans-39" transform="translate(128.203125 39.046875)scale(0.7)"/>
      </g>
     </g>
    </g>
    <g id="ytick_8">
     <g id="line2d_72">
      <defs>
       <path id="m55af95347a" d="M 0 0 
L -2 0 
" style="stroke: #000000; stroke-width: 0.6"/>
      </defs>
      <g>
       <use xlink:href="#m55af95347a" x="90" y="444.407559" style="stroke: #000000; stroke-width: 0.6"/>
      </g>
     </g>
    </g>
    <g id="ytick_9">
     <g id="line2d_73">
      <g>
       <use xlink:href="#m55af95347a" x="90" y="439.099853" style="stroke: #000000; stroke-width: 0.6"/>
      </g>
     </g>
    </g>
    <g id="ytick_10">
     <g id="line2d_74">
      <g>
       <use xlink:href="#m55af95347a" x="90" y="434.763141" style="stroke: #000000; stroke-width: 0.6"/>
      </g>
     </g>
    </g>
    <g id="ytick_11">
     <g id="line2d_75">
      <g>
       <use xlink:href="#m55af95347a" x="90" y="431.096504" style="stroke: #000000; stroke-width: 0.6"/>
      </g>
     </g>
    </g>
    <g id="ytick_12">
     <g id="line2d_76">
      <g>
       <use xlink:href="#m55af95347a" x="90" y="427.920318" style="stroke: #000000; stroke-width: 0.6"/>
      </g>
     </g>
    </g>
    <g id="ytick_13">
     <g id="line2d_77">
      <g>
       <use xlink:href="#m55af95347a" x="90" y="425.118723" style="stroke: #000000; stroke-width: 0.6"/>
      </g>
     </g>
    </g>
    <g id="ytick_14">
     <g id="line2d_78">
      <g>
       <use xlink:href="#m55af95347a" x="90" y="406.125371" style="stroke: #000000; stroke-width: 0.6"/>
      </g>
     </g>
    </g>
    <g id="ytick_15">
     <g id="line2d_79">
      <g>
       <use xlink:href="#m55af95347a" x="90" y="396.480953" style="stroke: #000000; stroke-width: 0.6"/>
      </g>
     </g>
    </g>
    <g id="ytick_16">
     <g id="line2d_80">
      <g>
       <use xlink:href="#m55af95347a" x="90" y="389.638129" style="stroke: #000000; stroke-width: 0.6"/>
      </g>
     </g>
    </g>
    <g id="ytick_17">
     <g id="line2d_81">
      <g>
       <use xlink:href="#m55af95347a" x="90" y="384.330423" style="stroke: #000000; stroke-width: 0.6"/>
      </g>
     </g>
    </g>
    <g id="ytick_18">
     <g id="line2d_82">
      <g>
       <use xlink:href="#m55af95347a" x="90" y="379.993712" style="stroke: #000000; stroke-width: 0.6"/>
      </g>
     </g>
    </g>
    <g id="ytick_19">
     <g id="line2d_83">
      <g>
       <use xlink:href="#m55af95347a" x="90" y="376.327074" style="stroke: #000000; stroke-width: 0.6"/>
      </g>
     </g>
    </g>
    <g id="ytick_20">
     <g id="line2d_84">
      <g>
       <use xlink:href="#m55af95347a" x="90" y="373.150888" style="stroke: #000000; stroke-width: 0.6"/>
      </g>
     </g>
    </g>
    <g id="ytick_21">
     <g id="line2d_85">
      <g>
       <use xlink:href="#m55af95347a" x="90" y="370.349294" style="stroke: #000000; stroke-width: 0.6"/>
      </g>
     </g>
    </g>
    <g id="ytick_22">
     <g id="line2d_86">
      <g>
       <use xlink:href="#m55af95347a" x="90" y="351.355941" style="stroke: #000000; stroke-width: 0.6"/>
      </g>
     </g>
    </g>
    <g id="ytick_23">
     <g id="line2d_87">
      <g>
       <use xlink:href="#m55af95347a" x="90" y="341.711523" style="stroke: #000000; stroke-width: 0.6"/>
      </g>
     </g>
    </g>
    <g id="ytick_24">
     <g id="line2d_88">
      <g>
       <use xlink:href="#m55af95347a" x="90" y="334.8687" style="stroke: #000000; stroke-width: 0.6"/>
      </g>
     </g>
    </g>
    <g id="ytick_25">
     <g id="line2d_89">
      <g>
       <use xlink:href="#m55af95347a" x="90" y="329.560994" style="stroke: #000000; stroke-width: 0.6"/>
      </g>
     </g>
    </g>
    <g id="ytick_26">
     <g id="line2d_90">
      <g>
       <use xlink:href="#m55af95347a" x="90" y="325.224282" style="stroke: #000000; stroke-width: 0.6"/>
      </g>
     </g>
    </g>
    <g id="ytick_27">
     <g id="line2d_91">
      <g>
       <use xlink:href="#m55af95347a" x="90" y="321.557645" style="stroke: #000000; stroke-width: 0.6"/>
      </g>
     </g>
    </g>
    <g id="ytick_28">
     <g id="line2d_92">
      <g>
       <use xlink:href="#m55af95347a" x="90" y="318.381459" style="stroke: #000000; stroke-width: 0.6"/>
      </g>
     </g>
    </g>
    <g id="ytick_29">
     <g id="line2d_93">
      <g>
       <use xlink:href="#m55af95347a" x="90" y="315.579865" style="stroke: #000000; stroke-width: 0.6"/>
      </g>
     </g>
    </g>
    <g id="ytick_30">
     <g id="line2d_94">
      <g>
       <use xlink:href="#m55af95347a" x="90" y="296.586512" style="stroke: #000000; stroke-width: 0.6"/>
      </g>
     </g>
    </g>
    <g id="ytick_31">
     <g id="line2d_95">
      <g>
       <use xlink:href="#m55af95347a" x="90" y="286.942094" style="stroke: #000000; stroke-width: 0.6"/>
      </g>
     </g>
    </g>
    <g id="ytick_32">
     <g id="line2d_96">
      <g>
       <use xlink:href="#m55af95347a" x="90" y="280.099271" style="stroke: #000000; stroke-width: 0.6"/>
      </g>
     </g>
    </g>
    <g id="ytick_33">
     <g id="line2d_97">
      <g>
       <use xlink:href="#m55af95347a" x="90" y="274.791565" style="stroke: #000000; stroke-width: 0.6"/>
      </g>
     </g>
    </g>
    <g id="ytick_34">
     <g id="line2d_98">
      <g>
       <use xlink:href="#m55af95347a" x="90" y="270.454853" style="stroke: #000000; stroke-width: 0.6"/>
      </g>
     </g>
    </g>
    <g id="ytick_35">
     <g id="line2d_99">
      <g>
       <use xlink:href="#m55af95347a" x="90" y="266.788216" style="stroke: #000000; stroke-width: 0.6"/>
      </g>
     </g>
    </g>
    <g id="ytick_36">
     <g id="line2d_100">
      <g>
       <use xlink:href="#m55af95347a" x="90" y="263.61203" style="stroke: #000000; stroke-width: 0.6"/>
      </g>
     </g>
    </g>
    <g id="ytick_37">
     <g id="line2d_101">
      <g>
       <use xlink:href="#m55af95347a" x="90" y="260.810435" style="stroke: #000000; stroke-width: 0.6"/>
      </g>
     </g>
    </g>
    <g id="ytick_38">
     <g id="line2d_102">
      <g>
       <use xlink:href="#m55af95347a" x="90" y="241.817082" style="stroke: #000000; stroke-width: 0.6"/>
      </g>
     </g>
    </g>
    <g id="ytick_39">
     <g id="line2d_103">
      <g>
       <use xlink:href="#m55af95347a" x="90" y="232.172665" style="stroke: #000000; stroke-width: 0.6"/>
      </g>
     </g>
    </g>
    <g id="ytick_40">
     <g id="line2d_104">
      <g>
       <use xlink:href="#m55af95347a" x="90" y="225.329841" style="stroke: #000000; stroke-width: 0.6"/>
      </g>
     </g>
    </g>
    <g id="ytick_41">
     <g id="line2d_105">
      <g>
       <use xlink:href="#m55af95347a" x="90" y="220.022135" style="stroke: #000000; stroke-width: 0.6"/>
      </g>
     </g>
    </g>
    <g id="ytick_42">
     <g id="line2d_106">
      <g>
       <use xlink:href="#m55af95347a" x="90" y="215.685424" style="stroke: #000000; stroke-width: 0.6"/>
      </g>
     </g>
    </g>
    <g id="ytick_43">
     <g id="line2d_107">
      <g>
       <use xlink:href="#m55af95347a" x="90" y="212.018786" style="stroke: #000000; stroke-width: 0.6"/>
      </g>
     </g>
    </g>
    <g id="ytick_44">
     <g id="line2d_108">
      <g>
       <use xlink:href="#m55af95347a" x="90" y="208.8426" style="stroke: #000000; stroke-width: 0.6"/>
      </g>
     </g>
    </g>
    <g id="ytick_45">
     <g id="line2d_109">
      <g>
       <use xlink:href="#m55af95347a" x="90" y="206.041006" style="stroke: #000000; stroke-width: 0.6"/>
      </g>
     </g>
    </g>
    <g id="ytick_46">
     <g id="line2d_110">
      <g>
       <use xlink:href="#m55af95347a" x="90" y="187.047653" style="stroke: #000000; stroke-width: 0.6"/>
      </g>
     </g>
    </g>
    <g id="ytick_47">
     <g id="line2d_111">
      <g>
       <use xlink:href="#m55af95347a" x="90" y="177.403235" style="stroke: #000000; stroke-width: 0.6"/>
      </g>
     </g>
    </g>
    <g id="ytick_48">
     <g id="line2d_112">
      <g>
       <use xlink:href="#m55af95347a" x="90" y="170.560412" style="stroke: #000000; stroke-width: 0.6"/>
      </g>
     </g>
    </g>
    <g id="ytick_49">
     <g id="line2d_113">
      <g>
       <use xlink:href="#m55af95347a" x="90" y="165.252706" style="stroke: #000000; stroke-width: 0.6"/>
      </g>
     </g>
    </g>
    <g id="ytick_50">
     <g id="line2d_114">
      <g>
       <use xlink:href="#m55af95347a" x="90" y="160.915994" style="stroke: #000000; stroke-width: 0.6"/>
      </g>
     </g>
    </g>
    <g id="ytick_51">
     <g id="line2d_115">
      <g>
       <use xlink:href="#m55af95347a" x="90" y="157.249357" style="stroke: #000000; stroke-width: 0.6"/>
      </g>
     </g>
    </g>
    <g id="ytick_52">
     <g id="line2d_116">
      <g>
       <use xlink:href="#m55af95347a" x="90" y="154.073171" style="stroke: #000000; stroke-width: 0.6"/>
      </g>
     </g>
    </g>
    <g id="ytick_53">
     <g id="line2d_117">
      <g>
       <use xlink:href="#m55af95347a" x="90" y="151.271576" style="stroke: #000000; stroke-width: 0.6"/>
      </g>
     </g>
    </g>
    <g id="ytick_54">
     <g id="line2d_118">
      <g>
       <use xlink:href="#m55af95347a" x="90" y="132.278224" style="stroke: #000000; stroke-width: 0.6"/>
      </g>
     </g>
    </g>
    <g id="ytick_55">
     <g id="line2d_119">
      <g>
       <use xlink:href="#m55af95347a" x="90" y="122.633806" style="stroke: #000000; stroke-width: 0.6"/>
      </g>
     </g>
    </g>
    <g id="ytick_56">
     <g id="line2d_120">
      <g>
       <use xlink:href="#m55af95347a" x="90" y="115.790983" style="stroke: #000000; stroke-width: 0.6"/>
      </g>
     </g>
    </g>
    <g id="ytick_57">
     <g id="line2d_121">
      <g>
       <use xlink:href="#m55af95347a" x="90" y="110.483277" style="stroke: #000000; stroke-width: 0.6"/>
      </g>
     </g>
    </g>
    <g id="ytick_58">
     <g id="line2d_122">
      <g>
       <use xlink:href="#m55af95347a" x="90" y="106.146565" style="stroke: #000000; stroke-width: 0.6"/>
      </g>
     </g>
    </g>
    <g id="ytick_59">
     <g id="line2d_123">
      <g>
       <use xlink:href="#m55af95347a" x="90" y="102.479927" style="stroke: #000000; stroke-width: 0.6"/>
      </g>
     </g>
    </g>
    <g id="ytick_60">
     <g id="line2d_124">
      <g>
       <use xlink:href="#m55af95347a" x="90" y="99.303742" style="stroke: #000000; stroke-width: 0.6"/>
      </g>
     </g>
    </g>
    <g id="ytick_61">
     <g id="line2d_125">
      <g>
       <use xlink:href="#m55af95347a" x="90" y="96.502147" style="stroke: #000000; stroke-width: 0.6"/>
      </g>
     </g>
    </g>
    <g id="ytick_62">
     <g id="line2d_126">
      <g>
       <use xlink:href="#m55af95347a" x="90" y="77.508794" style="stroke: #000000; stroke-width: 0.6"/>
      </g>
     </g>
    </g>
    <g id="ytick_63">
     <g id="line2d_127">
      <g>
       <use xlink:href="#m55af95347a" x="90" y="67.864377" style="stroke: #000000; stroke-width: 0.6"/>
      </g>
     </g>
    </g>
    <g id="ytick_64">
     <g id="line2d_128">
      <g>
       <use xlink:href="#m55af95347a" x="90" y="61.021553" style="stroke: #000000; stroke-width: 0.6"/>
      </g>
     </g>
    </g>
    <g id="text_16">
     <!-- Effective population size (Ne) -->
     <g transform="translate(59.320312 328.198125)rotate(-90)scale(0.1 -0.1)">
      <defs>
       <path id="DejaVuSans-45" d="M 628 4666 
L 3578 4666 
L 3578 4134 
L 1259 4134 
L 1259 2753 
L 3481 2753 
L 3481 2222 
L 1259 2222 
L 1259 531 
L 3634 531 
L 3634 0 
L 628 0 
L 628 4666 
z
" transform="scale(0.015625)"/>
       <path id="DejaVuSans-66" d="M 2375 4863 
L 2375 4384 
L 1825 4384 
Q 1516 4384 1395 4259 
Q 1275 4134 1275 3809 
L 1275 3500 
L 2222 3500 
L 2222 3053 
L 1275 3053 
L 1275 0 
L 697 0 
L 697 3053 
L 147 3053 
L 147 3500 
L 697 3500 
L 697 3744 
Q 697 4328 969 4595 
Q 1241 4863 1831 4863 
L 2375 4863 
z
" transform="scale(0.015625)"/>
       <path id="DejaVuSans-63" d="M 3122 3366 
L 3122 2828 
Q 2878 2963 2633 3030 
Q 2388 3097 2138 3097 
Q 1578 3097 1268 2742 
Q 959 2388 959 1747 
Q 959 1106 1268 751 
Q 1578 397 2138 397 
Q 2388 397 2633 464 
Q 2878 531 3122 666 
L 3122 134 
Q 2881 22 2623 -34 
Q 2366 -91 2075 -91 
Q 1284 -91 818 406 
Q 353 903 353 1747 
Q 353 2603 823 3093 
Q 1294 3584 2113 3584 
Q 2378 3584 2631 3529 
Q 2884 3475 3122 3366 
z
" transform="scale(0.015625)"/>
       <path id="DejaVuSans-74" d="M 1172 4494 
L 1172 3500 
L 2356 3500 
L 2356 3053 
L 1172 3053 
L 1172 1153 
Q 1172 725 1289 603 
Q 1406 481 1766 481 
L 2356 481 
L 2356 0 
L 1766 0 
Q 1100 0 847 248 
Q 594 497 594 1153 
L 594 3053 
L 172 3053 
L 172 3500 
L 594 3500 
L 594 4494 
L 1172 4494 
z
" transform="scale(0.015625)"/>
       <path id="DejaVuSans-76" d="M 191 3500 
L 800 3500 
L 1894 563 
L 2988 3500 
L 3597 3500 
L 2284 0 
L 1503 0 
L 191 3500 
z
" transform="scale(0.015625)"/>
       <path id="DejaVuSans-70" d="M 1159 525 
L 1159 -1331 
L 581 -1331 
L 581 3500 
L 1159 3500 
L 1159 2969 
Q 1341 3281 1617 3432 
Q 1894 3584 2278 3584 
Q 2916 3584 3314 3078 
Q 3713 2572 3713 1747 
Q 3713 922 3314 415 
Q 2916 -91 2278 -91 
Q 1894 -91 1617 61 
Q 1341 213 1159 525 
z
M 3116 1747 
Q 3116 2381 2855 2742 
Q 2594 3103 2138 3103 
Q 1681 3103 1420 2742 
Q 1159 2381 1159 1747 
Q 1159 1113 1420 752 
Q 1681 391 2138 391 
Q 2594 391 2855 752 
Q 3116 1113 3116 1747 
z
" transform="scale(0.015625)"/>
       <path id="DejaVuSans-75" d="M 544 1381 
L 544 3500 
L 1119 3500 
L 1119 1403 
Q 1119 906 1312 657 
Q 1506 409 1894 409 
Q 2359 409 2629 706 
Q 2900 1003 2900 1516 
L 2900 3500 
L 3475 3500 
L 3475 0 
L 2900 0 
L 2900 538 
Q 2691 219 2414 64 
Q 2138 -91 1772 -91 
Q 1169 -91 856 284 
Q 544 659 544 1381 
z
M 1991 3584 
L 1991 3584 
z
" transform="scale(0.015625)"/>
       <path id="DejaVuSans-6c" d="M 603 4863 
L 1178 4863 
L 1178 0 
L 603 0 
L 603 4863 
z
" transform="scale(0.015625)"/>
       <path id="DejaVuSans-6e" d="M 3513 2113 
L 3513 0 
L 2938 0 
L 2938 2094 
Q 2938 2591 2744 2837 
Q 2550 3084 2163 3084 
Q 1697 3084 1428 2787 
Q 1159 2491 1159 1978 
L 1159 0 
L 581 0 
L 581 3500 
L 1159 3500 
L 1159 2956 
Q 1366 3272 1645 3428 
Q 1925 3584 2291 3584 
Q 2894 3584 3203 3211 
Q 3513 2838 3513 2113 
z
" transform="scale(0.015625)"/>
       <path id="DejaVuSans-7a" d="M 353 3500 
L 3084 3500 
L 3084 2975 
L 922 459 
L 3084 459 
L 3084 0 
L 275 0 
L 275 525 
L 2438 3041 
L 353 3041 
L 353 3500 
z
" transform="scale(0.015625)"/>
       <path id="DejaVuSans-4e" d="M 628 4666 
L 1478 4666 
L 3547 763 
L 3547 4666 
L 4159 4666 
L 4159 0 
L 3309 0 
L 1241 3903 
L 1241 0 
L 628 0 
L 628 4666 
z
" transform="scale(0.015625)"/>
      </defs>
      <use xlink:href="#DejaVuSans-45"/>
      <use xlink:href="#DejaVuSans-66" x="63.183594"/>
      <use xlink:href="#DejaVuSans-66" x="98.388672"/>
      <use xlink:href="#DejaVuSans-65" x="133.59375"/>
      <use xlink:href="#DejaVuSans-63" x="195.117188"/>
      <use xlink:href="#DejaVuSans-74" x="250.097656"/>
      <use xlink:href="#DejaVuSans-69" x="289.306641"/>
      <use xlink:href="#DejaVuSans-76" x="317.089844"/>
      <use xlink:href="#DejaVuSans-65" x="376.269531"/>
      <use xlink:href="#DejaVuSans-20" x="437.792969"/>
      <use xlink:href="#DejaVuSans-70" x="469.580078"/>
      <use xlink:href="#DejaVuSans-6f" x="533.056641"/>
      <use xlink:href="#DejaVuSans-70" x="594.238281"/>
      <use xlink:href="#DejaVuSans-75" x="657.714844"/>
      <use xlink:href="#DejaVuSans-6c" x="721.09375"/>
      <use xlink:href="#DejaVuSans-61" x="748.876953"/>
      <use xlink:href="#DejaVuSans-74" x="810.15625"/>
      <use xlink:href="#DejaVuSans-69" x="849.365234"/>
      <use xlink:href="#DejaVuSans-6f" x="877.148438"/>
      <use xlink:href="#DejaVuSans-6e" x="938.330078"/>
      <use xlink:href="#DejaVuSans-20" x="1001.708984"/>
      <use xlink:href="#DejaVuSans-73" x="1033.496094"/>
      <use xlink:href="#DejaVuSans-69" x="1085.595703"/>
      <use xlink:href="#DejaVuSans-7a" x="1113.378906"/>
      <use xlink:href="#DejaVuSans-65" x="1165.869141"/>
      <use xlink:href="#DejaVuSans-20" x="1227.392578"/>
      <use xlink:href="#DejaVuSans-28" x="1259.179688"/>
      <use xlink:href="#DejaVuSans-4e" x="1298.193359"/>
      <use xlink:href="#DejaVuSans-65" x="1372.998047"/>
      <use xlink:href="#DejaVuSans-29" x="1434.521484"/>
     </g>
    </g>
   </g>
   <g id="line2d_129">
    <path d="M -1 314.013874 
L 555.70077 314.013874 
L 555.70077 377.04247 
L 579.195763 377.04247 
L 579.195763 342.335102 
" clip-path="url(#pfc832b590d)" style="fill: none; stroke: #008000; stroke-width: 1.5; stroke-linecap: square"/>
   </g>
   <g id="line2d_130">
    <path d="M -1 362.691563 
L 141.637217 362.691563 
L 141.637217 333.859832 
L 161.480058 333.859832 
L 161.480058 305.069214 
L 185.291467 305.069214 
L 185.291467 284.942627 
L 213.071444 284.942627 
L 213.071444 289.980806 
L 455.154102 289.980806 
L 455.154102 340.842507 
L 463.091239 340.842507 
L 463.091239 416.622017 
L 510.714057 416.622017 
L 510.714057 378.882165 
L 514.682625 378.882165 
L 514.682625 378.882165 
" clip-path="url(#pfc832b590d)" style="fill: none; stroke: #0000ff; stroke-width: 1.5; stroke-linecap: square"/>
   </g>
   <g id="line2d_131">
    <path d="M 115.363636 318.360553 
L 464.942349 318.466334 
L 464.942349 318.500547 
L 467.107647 318.583943 
L 467.156707 318.723074 
L 467.907088 318.749508 
L 467.907088 318.937964 
L 467.932956 318.937964 
L 468.427577 319.030102 
L 468.427577 319.052244 
L 468.473214 319.052244 
L 469.112874 319.12987 
L 469.135935 319.239151 
L 469.746387 319.29724 
L 469.811977 319.696539 
L 469.986569 319.780456 
L 470.061284 319.930369 
L 470.269575 320.015194 
L 470.300724 320.107983 
L 470.731407 320.201495 
L 470.811483 320.323034 
L 471.055466 320.348392 
L 471.128756 321.113958 
L 471.309607 321.187659 
L 471.319678 324.392845 
L 471.525948 324.392845 
L 471.605427 324.908647 
L 471.954964 324.978059 
L 472.003672 325.305742 
L 472.367543 325.406198 
L 472.445455 325.549085 
L 472.659973 325.637206 
L 472.680585 325.694179 
L 472.848991 325.757933 
L 472.920808 325.908018 
L 472.994377 325.908018 
L 472.994377 326.034665 
L 473.099659 326.034665 
L 473.122745 326.034665 
L 473.146819 326.37334 
L 473.663967 326.417238 
L 473.760209 327.047389 
L 473.850123 327.047389 
L 473.850123 327.161904 
L 473.9599 327.161904 
L 474.369651 327.161904 
L 474.369651 327.851348 
L 474.432247 327.851348 
L 474.679212 327.851348 
L 474.699588 329.487399 
L 474.720072 329.487399 
L 480.903404 329.586214 
L 480.903404 329.643606 
L 480.99838 329.643606 
L 481.131493 329.698059 
L 481.131493 329.866517 
L 481.229414 329.866517 
L 481.584937 329.971835 
L 481.584937 330.184978 
L 481.592332 330.184978 
L 481.711205 330.256389 
L 481.713337 330.756762 
L 481.803742 330.756762 
L 481.839265 330.756762 
L 481.893793 332.755052 
L 481.939523 332.755052 
L 482.05165 332.849084 
L 482.124596 333.291883 
L 482.146755 333.291883 
L 482.163064 333.291883 
L 482.252298 334.364557 
L 482.271058 334.364557 
L 482.306006 334.364557 
L 482.41021 338.610553 
L 482.425591 338.610553 
L 482.513464 343.666637 
L 482.531474 343.666637 
L 482.584291 343.666637 
L 482.592949 344.348334 
L 482.747192 344.348334 
L 482.747192 344.503389 
L 482.826604 344.503389 
L 482.901577 344.503389 
L 483.003062 345.112852 
L 483.040065 345.112852 
L 483.151085 347.524299 
L 483.183721 347.524299 
L 483.233117 347.672261 
L 483.293194 347.672261 
L 483.331816 347.705228 
L 483.421179 348.363116 
L 483.506592 348.434027 
L 483.5529 348.530148 
L 483.614094 348.530148 
L 483.775148 348.530148 
L 483.865764 349.534783 
L 483.871985 349.534783 
L 484.011086 349.534783 
L 484.104952 350.375527 
L 484.108298 350.375527 
L 484.232769 350.474892 
L 484.341188 351.4148 
L 484.407294 351.4148 
L 484.43808 351.928422 
L 484.472644 351.928422 
L 484.533432 351.928422 
L 484.635004 354.176924 
L 484.637725 354.176924 
L 484.645119 354.176924 
L 484.694681 354.430939 
L 484.752617 354.430939 
L 484.900249 354.430939 
L 485.001074 355.243682 
L 485.154379 355.243682 
L 485.252503 357.047134 
L 485.359865 357.138467 
L 485.45491 357.504523 
L 485.709643 357.558923 
L 485.709643 357.811906 
L 485.814712 357.811906 
L 485.936648 357.891527 
L 486.030737 358.001157 
L 486.482739 358.084061 
L 486.497336 358.254595 
L 486.582577 358.254595 
L 486.595602 358.254595 
L 486.595602 358.138518 
L 486.667569 358.138518 
L 486.88352 358.138518 
L 486.88352 358.254595 
L 486.991644 358.254595 
L 487.234279 358.334642 
L 487.340739 358.645607 
L 487.341908 358.645607 
L 487.447505 358.743283 
L 487.447505 358.777918 
L 487.524093 358.777918 
L 487.770826 358.84742 
L 487.803959 359.192275 
L 487.872101 359.192275 
L 487.927139 359.193149 
L 488.034413 359.712171 
L 488.263756 359.725043 
L 488.335849 359.979117 
L 488.368786 359.979117 
L 488.563187 360.054805 
L 488.674023 360.844739 
L 489.084062 360.844739 
L 489.084062 361.628168 
L 489.157112 360.774528 
L 489.182969 360.774528 
L 489.365712 360.844739 
L 489.397928 362.486043 
L 489.45886 362.486043 
L 489.477553 362.486043 
L 489.559846 365.156216 
L 489.562534 365.156216 
L 489.596417 365.156216 
L 489.610398 365.328475 
L 489.697771 365.328475 
L 489.851044 365.409161 
L 489.851044 365.462204 
L 489.952918 365.462204 
L 490.140949 365.370494 
L 490.16765 365.277979 
L 490.252029 365.370494 
L 490.429175 365.462636 
L 490.429175 365.600218 
L 490.539049 365.600218 
L 490.737278 365.600218 
L 490.774315 365.462204 
L 490.838544 365.462204 
L 491.366464 365.370494 
L 491.469598 365.228884 
L 491.749689 365.174233 
L 491.757137 365.096412 
L 491.848742 365.096412 
L 492.694084 365.174233 
L 492.743119 365.370494 
L 492.792338 365.370494 
L 493.031904 365.277979 
L 493.031904 365.174233 
L 493.063309 365.328475 
L 493.100313 365.328475 
L 493.234935 365.409161 
L 493.261347 365.600218 
L 493.345553 365.462204 
L 493.35779 365.462204 
L 493.35779 365.600218 
L 493.421845 365.600218 
L 493.546511 365.600218 
L 493.546511 365.462204 
L 493.552856 365.649107 
L 493.639278 365.600218 
L 493.759681 365.600218 
L 493.790777 365.409161 
L 493.847271 365.409161 
L 494.444935 365.328475 
L 494.540129 364.918246 
L 494.56375 364.918246 
L 494.610008 362.854705 
L 494.67338 362.854705 
L 494.792987 362.854705 
L 494.808863 361.970494 
L 494.896618 361.970494 
L 494.92333 361.970494 
L 494.92333 362.159107 
L 494.963712 360.844739 
L 495.030974 361.715484 
L 495.067072 361.715484 
L 495.163448 360.421011 
L 495.165868 360.421011 
L 495.256624 360.421011 
L 495.293325 360.134843 
L 495.330587 360.134843 
L 495.396814 360.134843 
L 495.420336 360.421011 
L 495.487673 360.257074 
L 495.521046 360.257074 
L 495.629404 360.022119 
L 495.81978 360.054805 
L 495.889514 360.679164 
L 495.907053 360.421011 
L 495.936284 360.421011 
L 495.960594 360.774528 
L 496.026989 360.257074 
L 496.042303 360.257074 
L 496.119779 360.257074 
L 496.214938 360.777218 
L 496.21746 360.777218 
L 497.080925 360.679164 
L 497.136719 359.90855 
L 497.149237 360.022119 
L 497.199496 360.022119 
L 497.249795 358.582301 
L 497.301289 358.948304 
L 497.362752 358.948304 
L 497.370827 358.545832 
L 497.464999 358.545832 
L 497.775177 358.545832 
L 497.775177 358.221566 
L 497.853959 358.221566 
L 498.081453 358.221566 
L 498.131725 355.439005 
L 498.191251 355.439005 
L 498.22199 355.439005 
L 498.331375 354.675462 
L 498.357996 354.675462 
L 498.357996 354.390611 
L 498.461529 354.390611 
L 498.576635 354.30026 
L 498.576635 354.228904 
L 498.662954 354.228904 
L 498.695389 354.228904 
L 498.695389 354.092341 
L 498.801955 354.092341 
L 498.820257 354.092341 
L 498.850756 353.428634 
L 498.90489 353.428634 
L 498.978831 353.428634 
L 499.08927 352.527641 
L 499.102417 352.527641 
L 499.102417 352.341673 
L 499.21079 352.341673 
L 499.298033 352.341673 
L 499.344715 351.268173 
L 499.408742 351.268173 
L 499.433703 351.268173 
L 499.536611 350.562092 
L 499.5386 350.562092 
L 499.752734 350.492526 
L 499.755098 350.249413 
L 499.79702 350.249413 
L 499.871 350.249413 
L 499.871 350.444112 
L 499.951075 350.203184 
L 500.02605 350.203184 
L 500.1054 349.346623 
L 500.134004 349.510733 
L 500.172 349.510733 
L 500.172 349.346623 
L 500.257085 349.346623 
L 500.290352 349.346623 
L 500.290352 349.510733 
L 500.384998 349.291735 
L 500.454354 349.26183 
L 500.454354 349.15156 
L 500.557728 349.15156 
L 500.941012 349.15156 
L 500.941012 348.765573 
L 501.047109 348.765573 
L 501.05536 348.765573 
L 501.05536 349.15156 
L 501.145921 348.765573 
L 501.184884 348.765573 
L 501.264391 348.229497 
L 501.293438 348.229497 
L 501.414301 348.159988 
L 501.462444 347.415321 
L 502.115267 347.356447 
L 502.115267 347.223292 
L 502.208108 347.223292 
L 502.846372 347.113193 
L 502.886439 347.031181 
L 502.945686 347.031181 
L 504.278874 346.961968 
L 504.330658 346.807943 
L 504.386716 346.807943 
L 504.39161 346.807943 
L 504.39161 346.426421 
L 504.429423 346.426421 
L 504.675124 346.371237 
L 504.675124 346.19214 
L 504.777375 346.19214 
L 505.085207 346.19214 
L 505.085207 346.371237 
L 505.138145 346.371237 
L 505.599918 346.371237 
L 505.678834 345.467738 
L 505.986271 345.357839 
L 505.99594 344.762909 
L 506.427248 344.754611 
L 506.466974 344.599578 
L 506.472884 344.599578 
L 506.699597 344.54242 
L 506.699597 344.433825 
L 506.781992 344.433825 
L 506.865835 344.433825 
L 506.902951 344.196396 
L 506.960713 344.196396 
L 507.071962 344.196396 
L 507.106465 343.569369 
L 507.182911 343.58174 
L 508.557762 343.563592 
L 508.557762 343.052176 
L 508.660251 343.563592 
L 508.70047 343.563592 
L 508.70047 343.052176 
L 508.794755 343.052176 
L 508.998543 343.052176 
L 508.998543 343.563592 
L 509.073799 343.563592 
L 509.192671 343.563592 
L 509.253105 342.960353 
L 509.295627 342.960353 
L 509.42489 342.960353 
L 509.474481 342.780067 
L 509.808753 342.6924 
L 509.808753 342.485444 
L 509.885607 342.6924 
L 510.077279 342.6924 
L 510.077279 342.485444 
L 510.151515 342.485444 
L 510.263763 342.485444 
L 510.263763 342.6924 
L 510.287513 342.6924 
L 510.520387 342.6924 
L 510.520387 342.485444 
L 510.60412 342.485444 
L 511.537414 342.485444 
L 511.537414 342.6924 
L 511.774485 342.6924 
L 511.774485 342.960353 
L 511.806818 342.960353 
L 511.937647 342.883258 
L 511.937647 342.6924 
L 512.02578 342.6924 
L 512.23493 342.6924 
L 512.23493 342.515078 
L 512.328872 342.6924 
L 512.490199 342.6924 
L 512.531378 342.485444 
L 512.574214 342.485444 
L 512.637686 342.515078 
L 512.637686 342.6924 
L 512.726158 342.6924 
L 512.852824 342.6924 
L 512.852824 342.515078 
L 512.963472 342.515078 
L 513.558624 342.515078 
L 513.558624 342.6924 
L 513.838019 342.6924 
L 513.939428 342.960353 
L 514.831602 342.883258 
L 514.914315 342.6924 
L 515.210335 342.6924 
L 515.210335 342.515078 
L 515.316816 342.515078 
L 515.779274 342.485444 
L 515.779274 342.377954 
L 515.800947 342.515078 
L 515.832533 342.515078 
L 516.11918 342.485444 
L 516.11918 342.377954 
L 517.149863 342.485444 
L 517.19804 342.6924 
L 517.245647 342.6924 
L 517.337173 342.6924 
L 517.411936 342.883258 
L 517.412665 342.883258 
L 518.762178 342.977756 
L 518.762178 343.016283 
L 518.808987 343.016283 
L 519.12899 343.016283 
L 519.12899 343.424539 
L 519.234119 343.424539 
L 519.255236 343.424539 
L 519.255236 343.563592 
L 519.329499 343.563592 
L 519.742129 343.58174 
L 519.751008 343.872204 
L 519.83588 343.753701 
L 520.000875 343.753701 
L 520.000875 343.872204 
L 520.020197 343.872204 
L 520.204289 343.872204 
L 520.307392 344.131195 
L 521.424823 344.225092 
L 521.424823 344.433825 
L 521.431634 344.433825 
L 521.929372 344.433825 
L 521.963342 344.621704 
L 522.010495 344.621704 
L 522.322681 344.716421 
L 522.332533 345.245193 
L 522.37778 345.245193 
L 522.450676 345.245193 
L 522.450676 345.357839 
L 522.481346 345.357839 
L 522.79042 345.357839 
L 522.834234 345.708222 
L 523.004545 345.806146 
L 523.004545 345.945425 
L 523.147078 345.945425 
L 523.175903 346.858133 
L 523.78908 346.961968 
L 523.78908 346.984812 
L 524.161191 347.031181 
L 524.236245 347.632535 
L 524.251408 347.632535 
L 524.395857 347.679442 
L 524.481155 348.475696 
L 524.556152 348.549645 
L 524.595712 348.789324 
L 524.641264 348.789324 
L 524.713569 348.883244 
L 524.817876 349.342084 
L 524.879867 349.409522 
L 524.947118 349.510733 
L 524.961689 349.510733 
L 525.051423 349.510733 
L 525.154973 350.249413 
L 525.231395 350.293179 
L 525.332365 351.110573 
L 525.338155 351.110573 
L 525.516125 351.141287 
L 525.57631 351.397225 
L 525.880113 351.405035 
L 525.97017 352.512627 
L 526.692578 352.581354 
L 526.77596 353.685255 
L 526.839332 353.685255 
L 526.909182 354.092341 
L 526.942506 354.092341 
L 527.039563 354.092341 
L 527.07596 354.418772 
L 527.173248 354.418772 
L 527.268507 354.843309 
L 527.516093 354.881802 
L 527.623051 356.624393 
L 527.651892 356.624393 
L 527.747586 357.607964 
L 527.81832 357.607964 
L 527.905717 358.45146 
L 527.90929 358.45146 
L 527.956794 358.45146 
L 528.019804 358.600071 
L 528.065427 358.600071 
L 528.105492 358.600071 
L 528.12679 359.091216 
L 528.201736 359.091216 
L 528.279692 359.091216 
L 528.335827 360.509825 
L 528.382258 360.509825 
L 528.463127 360.54669 
L 528.469485 361.655324 
L 528.559675 361.655324 
L 528.674296 361.686421 
L 528.766319 362.458246 
L 528.783391 362.458246 
L 528.823186 362.458246 
L 528.929127 363.439154 
L 529.023827 363.443749 
L 529.091147 364.067573 
L 529.103302 364.067573 
L 529.184091 364.167711 
L 529.282284 366.063467 
L 529.356842 366.063467 
L 529.465912 367.203508 
L 529.471112 367.203508 
L 529.581991 368.758136 
L 529.618724 368.775189 
L 529.726159 369.755955 
L 529.742368 369.755955 
L 529.782074 370.397493 
L 529.815476 370.397493 
L 529.891184 370.412101 
L 529.946386 372.061362 
L 529.992669 372.061362 
L 530.054889 372.061362 
L 530.146371 373.558914 
L 530.228562 373.558914 
L 530.331087 375.272 
L 530.365222 375.308123 
L 530.417377 376.040713 
L 530.463629 376.040713 
L 530.491711 376.040713 
L 530.599167 377.005047 
L 530.611966 377.005047 
L 530.694531 379.637557 
L 530.708238 379.637557 
L 530.732173 379.64873 
L 530.740769 379.909346 
L 530.824518 379.909346 
L 530.982647 379.983748 
L 531.07708 380.225125 
L 531.224624 380.310236 
L 531.312879 380.603887 
L 531.318314 380.603887 
L 531.339193 380.603887 
L 531.444521 381.152067 
L 531.517719 381.234353 
L 531.619643 381.89653 
L 531.627435 381.89653 
L 531.634279 381.89653 
L 531.744803 383.037672 
L 531.813011 383.139852 
L 531.914799 383.867231 
L 531.916849 383.867231 
L 531.94501 383.870495 
L 532.04017 385.217539 
L 532.044217 385.217539 
L 532.099028 385.217539 
L 532.201069 388.012864 
L 532.207797 388.012864 
L 532.247075 388.080042 
L 532.349259 391.534966 
L 532.352417 391.534966 
L 532.420827 391.534966 
L 532.481071 392.913962 
L 532.498034 392.913962 
L 532.552023 392.913962 
L 532.645629 394.050378 
L 532.654746 394.050378 
L 532.794529 394.050378 
L 532.892313 394.421734 
L 532.897282 394.421734 
L 533.043007 394.531079 
L 533.10928 394.647785 
L 533.147083 394.647785 
L 533.213279 394.741799 
L 533.315221 394.911007 
L 533.347496 394.97428 
L 533.43231 398.188636 
L 533.455687 398.018089 
L 533.507881 398.018089 
L 533.512597 398.458483 
L 533.543208 397.912856 
L 533.610464 398.458483 
L 533.659225 398.458483 
L 533.71231 400.475911 
L 533.76636 399.35037 
L 533.821793 399.35037 
L 533.821793 399.121308 
L 533.926001 400.429346 
L 533.92819 400.429346 
L 533.958713 400.429346 
L 533.958713 399.405165 
L 534.003463 400.475911 
L 534.067838 399.405165 
L 534.14472 399.405165 
L 534.14472 400.429346 
L 534.252026 400.202037 
L 534.300946 400.202037 
L 534.324348 401.516513 
L 534.409463 401.307598 
L 534.433741 401.307598 
L 534.542111 402.857527 
L 534.543429 402.558775 
L 534.555524 402.558775 
L 534.66495 403.582757 
L 534.726678 403.687499 
L 534.809706 406.160268 
L 534.834372 406.023473 
L 534.839255 406.023473 
L 534.839255 405.680325 
L 534.948543 409.36424 
L 535.029996 409.36424 
L 535.083295 411.716434 
L 535.136728 411.716434 
L 535.153317 411.716434 
L 535.224411 414.540309 
L 535.261905 414.540309 
L 535.290819 414.540309 
L 535.316469 414.968737 
L 535.401432 414.956006 
L 535.650351 414.968737 
L 535.757687 415.297497 
L 535.762942 415.297497 
L 535.836004 413.809042 
L 535.869108 413.809042 
L 535.894683 413.809042 
L 535.985745 406.838455 
L 535.998711 408.139918 
L 536.016004 408.139918 
L 536.090923 402.558775 
L 536.117098 402.558775 
L 536.150131 402.558775 
L 536.171013 403.411172 
L 536.248758 400.429346 
L 536.267365 400.429346 
L 536.360751 395.459148 
L 536.368924 395.459148 
L 536.379162 395.459148 
L 536.428656 394.911007 
L 536.465719 394.911007 
L 536.705465 394.824367 
L 536.737316 394.668475 
L 536.811523 394.668475 
L 537.363909 394.584608 
L 537.363909 394.531079 
L 537.459498 394.584608 
L 538.041823 394.476788 
L 538.14533 394.409895 
L 538.20025 394.409895 
L 538.20025 394.298659 
L 538.309976 394.298659 
L 538.507857 394.204894 
L 538.581705 393.854956 
L 538.635509 393.772645 
L 538.73543 393.558142 
L 538.772504 393.4565 
L 538.87476 393.27202 
L 538.975806 393.172724 
L 538.990665 393.143514 
L 539.067856 393.143514 
L 539.186591 393.042658 
L 539.291029 392.547479 
L 539.304851 392.547479 
L 539.365613 392.139688 
L 539.502613 392.044859 
L 539.550562 391.840633 
L 539.601534 391.840633 
L 539.799969 391.826444 
L 539.873548 391.714472 
L 540.516672 391.645981 
L 540.539213 391.482157 
L 542.493994 391.401656 
L 542.493994 391.370759 
L 543.432419 391.281903 
L 543.432419 391.255601 
L 543.540075 391.281903 
L 553.202519 391.370759 
L 553.202519 391.401656 
L 560.024204 391.401656 
L 560.024204 391.401656 
" clip-path="url(#pfc832b590d)" style="fill: none; stroke: #ff0000; stroke-width: 1.5; stroke-linecap: square"/>
   </g>
   <g id="LineCollection_1">
    <path d="M -1 318.360553 
L 115.363636 318.360553 
" clip-path="url(#pfc832b590d)" style="fill: none; stroke-dasharray: 5.55,2.4; stroke-dashoffset: 0; stroke: #ff0000; stroke-width: 1.5"/>
   </g>
   <g id="line2d_132">
    <path d="M -1 401.839864 
L 392.482991 401.839864 
L 392.482991 430.92 
L 418.739307 430.92 
L 418.739307 426.884299 
L 435.313489 426.884299 
L 435.313489 422.676653 
L 447.963865 422.676653 
L 447.963865 418.67518 
L 458.494654 418.67518 
L 458.494654 414.865302 
L 467.709201 414.865302 
L 467.709201 411.167479 
L 476.035304 411.167479 
L 476.035304 407.569496 
L 483.727906 407.569496 
L 483.727906 404.077192 
L 490.950984 404.077192 
L 490.950984 400.679232 
L 497.81601 400.679232 
L 497.81601 397.334942 
L 504.402069 397.334942 
L 504.402069 393.985828 
L 510.767084 393.985828 
L 510.767084 390.586217 
L 516.95445 390.586217 
L 516.95445 387.119138 
L 522.997663 387.119138 
L 522.997663 383.604055 
L 528.923081 383.604055 
L 528.923081 380.093196 
L 534.751355 380.093196 
L 534.751355 376.660176 
L 540.498882 376.660176 
L 540.498882 373.386927 
L 546.179217 373.386927 
L 546.179217 370.347729 
L 551.803435 370.347729 
L 551.803435 367.595329 
L 557.380491 367.595329 
L 557.380491 365.15289 
L 562.917827 365.15289 
L 562.917827 363.016994 
L 568.42168 363.016994 
L 568.42168 361.171761 
L 573.897255 361.171761 
L 573.897255 359.606599 
L 579.348866 359.606599 
L 579.348866 358.350038 
L 584.780156 358.350038 
L 584.780156 357.554727 
L 590.194217 357.554727 
L 590.194217 359.871657 
L 595.593601 359.871657 
L 595.593601 359.871657 
L 600.980326 359.871657 
L 600.980326 257.960666 
L 606.356598 257.960666 
L 606.356598 257.960666 
L 611.723949 257.960666 
L 611.723949 257.960666 
L 617.083446 257.960666 
" clip-path="url(#pfc832b590d)" style="fill: none; stroke: #800080; stroke-width: 1.5; stroke-linecap: square"/>
   </g>
   <g id="line2d_133">
    <path d="M 365.336461 82.550764 
L 365.336461 78.12 
L 419.658036 78.12 
L 419.658036 103.357747 
L 439.555829 103.357747 
L 439.555829 148.555585 
L 452.010306 148.555585 
L 452.010306 249.424968 
L 461.098137 249.424968 
L 461.098137 326.43711 
L 468.257427 326.43711 
L 468.257427 350.533279 
L 474.165107 350.533279 
L 474.165107 379.984684 
L 479.19436 379.984684 
L 479.19436 405.465225 
L 483.572916 405.465225 
L 483.572916 405.930048 
L 487.450027 405.930048 
L 487.450027 413.448312 
L 490.928834 413.448312 
L 490.928834 412.427938 
L 494.083605 412.427938 
L 494.083605 413.390565 
L 496.969595 413.390565 
L 496.969595 412.57556 
L 499.629028 412.57556 
L 499.629028 411.707333 
L 502.094901 411.707333 
L 502.094901 411.044916 
L 504.393488 411.044916 
L 504.393488 409.327636 
L 506.546051 409.327636 
L 506.546051 408.160427 
L 508.570041 408.160427 
L 508.570041 407.182398 
L 510.479955 407.182398 
L 510.479955 405.397684 
L 512.287968 405.397684 
L 512.287968 403.531808 
L 514.004407 403.531808 
L 514.004407 402.244211 
L 515.638101 402.244211 
L 515.638101 400.980807 
L 517.196663 400.980807 
L 517.196663 398.91812 
L 518.686701 398.91812 
L 518.686701 396.620599 
L 520.113988 396.620599 
L 520.113988 395.1184 
L 521.483595 395.1184 
L 521.483595 393.819376 
L 522.800004 393.819376 
L 522.800004 392.191456 
L 524.067194 392.191456 
L 524.067194 390.059194 
L 525.288713 390.059194 
L 525.288713 387.682454 
L 526.467739 387.682454 
L 526.467739 386.101362 
L 527.607129 386.101362 
L 527.607129 384.64594 
L 528.709461 384.64594 
L 528.709461 383.598477 
L 529.777071 383.598477 
L 529.777071 381.793374 
L 530.812079 381.793374 
L 530.812079 379.941679 
L 531.816418 379.941679 
L 531.816418 377.924713 
L 532.791852 377.924713 
L 532.791852 376.245087 
L 533.74 376.245087 
L 533.74 375.115377 
L 534.662346 375.115377 
L 534.662346 374.064418 
L 535.560258 374.064418 
L 535.560258 373.25322 
L 536.434996 373.25322 
L 536.434996 371.890663 
L 537.287727 371.890663 
L 537.287727 370.525145 
L 538.119531 370.525145 
L 538.119531 369.126464 
L 538.931411 369.126464 
L 538.931411 367.763729 
L 539.724299 367.763729 
L 539.724299 366.872366 
L 540.499063 366.872366 
L 540.499063 366.129146 
L 541.256513 366.129146 
L 541.256513 365.475338 
L 541.997406 365.475338 
L 541.997406 364.91797 
L 542.722451 364.91797 
L 542.722451 364.287366 
L 543.432311 364.287366 
L 543.432311 363.48178 
L 544.12761 363.48178 
L 544.12761 362.756708 
L 544.808932 362.756708 
L 544.808932 362.03979 
L 545.476829 362.03979 
L 545.476829 361.373275 
L 546.131819 361.373275 
L 546.131819 360.90602 
L 546.774393 360.90602 
L 546.774393 360.57227 
L 547.405011 360.57227 
L 547.405011 360.242525 
L 548.024111 360.242525 
L 548.024111 359.960754 
L 548.632106 359.960754 
L 548.632106 359.733381 
L 549.229387 359.733381 
L 549.229387 359.549382 
L 549.816325 359.549382 
L 549.816325 359.338894 
L 550.393273 359.338894 
L 550.393273 359.129564 
L 550.960565 359.129564 
L 550.960565 358.958717 
L 551.518518 358.958717 
L 551.518518 358.8275 
L 552.067436 358.8275 
L 552.067436 358.712889 
L 553.662788 358.630344 
L 553.662788 358.596876 
L 555.679443 358.64633 
L 555.679443 358.759565 
L 556.165402 358.759565 
L 556.165402 358.907347 
L 556.644493 358.907347 
L 556.644493 359.081926 
L 557.116906 359.081926 
L 557.116906 359.253952 
L 557.582825 359.253952 
L 557.582825 359.456346 
L 558.042427 359.456346 
L 558.042427 359.665319 
L 558.495881 359.665319 
L 558.495881 359.894207 
L 558.943348 359.894207 
L 558.943348 360.107552 
L 559.384985 360.107552 
L 559.384985 360.290747 
L 559.820942 360.290747 
L 559.820942 360.44473 
L 560.251362 360.44473 
L 560.251362 360.599716 
L 560.676386 360.599716 
L 560.676386 360.758165 
L 561.096146 360.758165 
L 561.096146 360.94881 
L 561.510772 360.94881 
L 561.510772 361.153389 
L 561.920387 361.153389 
L 561.920387 361.381986 
L 562.325111 361.381986 
L 562.325111 361.659666 
L 562.72506 361.659666 
L 562.72506 361.978002 
L 563.120344 361.978002 
L 563.120344 362.32761 
L 563.511072 362.32761 
L 563.511072 362.682564 
L 563.897347 362.682564 
L 563.897347 363.072586 
L 564.27927 363.072586 
L 564.27927 363.436063 
L 564.656937 363.436063 
L 564.656937 363.765941 
L 565.030443 363.765941 
L 565.030443 364.091412 
L 565.399878 364.091412 
L 565.399878 364.413176 
L 565.76533 364.413176 
L 565.76533 364.704423 
L 566.126883 364.704423 
L 566.126883 364.934607 
L 566.484621 364.934607 
L 566.484621 365.16704 
L 566.838623 365.16704 
L 566.838623 365.340416 
L 567.188966 365.340416 
L 567.188966 365.563551 
L 567.535724 365.563551 
L 567.535724 365.804739 
L 567.878971 365.804739 
L 567.878971 366.092286 
L 568.218778 366.092286 
L 568.218778 366.366034 
L 568.555211 366.366034 
L 568.555211 366.624191 
L 568.888338 366.624191 
L 568.888338 366.925722 
L 569.218223 366.925722 
L 569.218223 367.268815 
L 569.544928 367.268815 
L 569.544928 367.647904 
L 569.868514 367.647904 
L 569.868514 368.071197 
L 570.189041 368.071197 
L 570.189041 368.477551 
L 570.506565 368.477551 
L 570.506565 368.842656 
L 570.821142 368.842656 
L 570.821142 369.141755 
L 571.132826 369.141755 
L 571.132826 369.421488 
L 571.441671 369.421488 
L 571.441671 369.723577 
L 571.747726 369.723577 
L 571.747726 370.054079 
L 572.051043 370.054079 
L 572.051043 370.333221 
L 572.35167 370.333221 
L 572.35167 370.589281 
L 572.649654 370.589281 
L 572.649654 370.766962 
L 572.945042 370.766962 
L 572.945042 370.931785 
L 573.237877 370.931785 
L 573.237877 371.113036 
L 573.528204 371.113036 
L 573.528204 371.293894 
L 573.816066 371.293894 
L 573.816066 371.514232 
L 574.101503 371.514232 
L 574.101503 371.797177 
L 574.384557 371.797177 
L 574.384557 372.047552 
L 574.665267 372.047552 
L 574.665267 372.279137 
L 574.943671 372.279137 
L 574.943671 372.478913 
L 575.219807 372.478913 
L 575.219807 372.720278 
L 575.493712 372.720278 
L 575.493712 372.987345 
L 575.765421 372.987345 
L 575.765421 373.316474 
L 576.034969 373.316474 
L 576.034969 373.650221 
L 576.302391 373.650221 
L 576.302391 373.964533 
L 576.567719 373.964533 
L 576.567719 374.276177 
L 576.830987 374.276177 
L 576.830987 374.562109 
L 577.092226 374.562109 
L 577.092226 374.748836 
L 577.351466 374.748836 
L 577.351466 374.941073 
L 577.608739 374.941073 
L 577.608739 375.14875 
L 577.864074 375.14875 
L 577.864074 375.370463 
L 578.1175 375.370463 
L 578.1175 375.620974 
L 578.369046 375.620974 
L 578.369046 375.832268 
L 578.618738 375.832268 
L 578.618738 375.997762 
L 578.866604 375.997762 
L 578.866604 376.12635 
L 579.112671 376.12635 
L 579.112671 376.244778 
L 579.356965 376.244778 
L 579.356965 376.373814 
L 579.59951 376.373814 
L 579.59951 376.523492 
L 579.840333 376.523492 
L 579.840333 376.635377 
L 580.079456 376.635377 
L 580.079456 376.804665 
L 580.316904 376.804665 
L 580.316904 377.009066 
L 580.552701 377.009066 
L 580.552701 377.186303 
L 580.786868 377.186303 
L 580.786868 377.354995 
L 581.019429 377.354995 
L 581.019429 377.522313 
L 581.250405 377.522313 
L 581.250405 377.650829 
L 581.479818 377.650829 
L 581.479818 377.805738 
L 581.707688 377.805738 
L 581.707688 377.981412 
L 581.934037 377.981412 
L 581.934037 378.163802 
L 582.158885 378.163802 
L 582.158885 378.368582 
L 582.38225 378.368582 
L 582.38225 378.573437 
L 582.604154 378.573437 
L 582.604154 378.745105 
L 582.824614 378.745105 
L 582.824614 378.923632 
L 583.04365 378.923632 
L 583.04365 379.114244 
L 583.261279 379.114244 
L 583.261279 379.227661 
L 583.69239 379.325609 
L 583.69239 379.437097 
L 583.905907 379.437097 
L 583.905907 379.556413 
L 584.118087 379.556413 
L 584.118087 379.676329 
L 584.328947 379.676329 
L 584.328947 379.795685 
L 584.538503 379.795685 
L 584.538503 379.919345 
L 584.953769 380.02752 
L 584.953769 380.123231 
L 585.364009 380.210488 
L 585.364009 380.278266 
L 585.769344 380.354653 
L 585.769344 380.438054 
L 586.169888 380.519551 
L 586.169888 380.587839 
L 586.565755 380.675939 
L 586.565755 380.778589 
L 586.957051 380.87823 
L 586.957051 380.96047 
L 587.343882 381.043176 
L 587.343882 381.12726 
L 587.726348 381.198709 
L 587.726348 381.258828 
L 588.104547 381.323802 
L 588.104547 381.39719 
L 588.478572 381.470805 
L 588.478572 381.555122 
L 588.848515 381.628806 
L 588.848515 381.698095 
L 589.214465 381.767586 
L 589.214465 381.836498 
L 589.756086 381.935158 
L 589.756086 381.97241 
L 590.289188 382.049744 
L 590.289188 382.090472 
L 590.814036 382.172138 
L 590.814036 382.219108 
L 591.33088 382.305619 
L 591.33088 382.339463 
L 592.175152 382.44106 
L 592.175152 382.46371 
L 594.743633 382.364301 
L 594.743633 382.337139 
L 595.356455 382.243293 
L 595.356455 382.211984 
L 595.808908 382.139881 
L 595.808908 382.100859 
L 596.549829 381.995471 
L 596.549829 381.964926 
L 597.131122 381.873523 
L 597.131122 381.843134 
L 597.702614 381.755888 
L 597.702614 381.731467 
L 598.124997 381.637327 
L 598.124997 381.590756 
L 598.542181 381.488615 
L 598.542181 381.392052 
L 598.817479 381.298039 
L 598.817479 381.193495 
L 598.954294 381.193495 
L 598.954294 381.047378 
L 599.090558 381.047378 
L 599.090558 380.902152 
L 599.226278 380.902152 
L 599.226278 380.757808 
L 599.361455 380.757808 
L 599.361455 380.614335 
L 599.496096 380.614335 
L 599.496096 380.480987 
L 599.630205 380.480987 
L 599.630205 380.349259 
L 599.763784 380.349259 
L 599.763784 380.218256 
L 599.89684 380.218256 
L 599.89684 380.087971 
L 600.029375 380.087971 
L 600.029375 379.958396 
L 600.161394 379.958396 
L 600.161394 379.829523 
L 600.292901 379.829523 
L 600.292901 379.701344 
L 600.423899 379.701344 
L 600.423899 379.573853 
L 600.554393 379.573853 
L 600.554393 379.447041 
L 600.684387 379.447041 
L 600.684387 379.320901 
L 600.813884 379.320901 
L 600.813884 379.198365 
L 601.071404 379.098919 
L 601.071404 378.999888 
L 601.326982 378.901266 
L 601.326982 378.803052 
L 601.580647 378.714333 
L 601.580647 378.659221 
L 603.544394 378.616663 
L 603.544394 378.004953 
L 603.663431 378.004953 
L 603.663431 377.312204 
L 603.782052 377.312204 
L 603.782052 376.639062 
L 603.900259 376.639062 
L 603.900259 375.984447 
L 604.018056 375.984447 
L 604.018056 375.347365 
L 604.135444 375.347365 
L 604.135444 374.726903 
L 604.252427 374.726903 
L 604.252427 374.122215 
L 604.369008 374.122215 
L 604.369008 373.532519 
L 604.485189 373.532519 
L 604.485189 372.95709 
L 604.600974 372.95709 
L 604.600974 372.395253 
L 604.716364 372.395253 
L 604.716364 371.846382 
L 604.831363 371.846382 
L 604.831363 371.309891 
L 604.945973 371.309891 
L 604.945973 370.785233 
L 605.060197 370.785233 
L 605.060197 370.271899 
L 605.174037 370.271899 
L 605.174037 369.76941 
L 605.287496 369.76941 
L 605.287496 369.277317 
L 605.400576 369.277317 
L 605.400576 368.795198 
L 605.513281 368.795198 
L 605.513281 368.322658 
L 605.625612 368.322658 
L 605.625612 367.859322 
L 605.737572 367.859322 
L 605.737572 367.40484 
L 605.849163 367.40484 
L 605.849163 366.596525 
L 605.960389 366.596525 
L 606.07125 364.902138 
L 606.18175 364.902138 
L 606.291891 363.320466 
L 606.401676 363.320466 
L 606.511105 361.837443 
L 606.620183 361.837443 
L 606.728911 360.734598 
L 606.837291 360.734598 
L 606.945326 360.052056 
L 607.053018 360.052056 
L 607.160368 359.070154 
L 607.26738 359.070154 
L 607.374054 357.751976 
L 607.480394 357.751976 
L 607.586402 356.108645 
L 607.692079 356.108645 
L 607.797428 354.385568 
L 607.90245 354.385568 
L 608.007148 352.778924 
L 608.111523 352.778924 
L 608.215578 351.085571 
L 608.319315 351.085571 
L 608.422735 349.286753 
L 608.52584 349.286753 
L 608.628633 347.614458 
L 608.731115 347.614458 
L 608.833288 346.033067 
L 608.935154 346.033067 
L 609.036715 344.306448 
L 609.137972 344.306448 
L 609.238928 342.930313 
L 609.339584 342.930313 
L 609.439942 341.629459 
L 609.540004 341.629459 
L 609.639771 340.396074 
L 609.739245 340.396074 
L 609.838429 339.223503 
L 609.937323 339.223503 
L 610.035929 338.028587 
L 610.134249 338.028587 
L 610.232285 336.764707 
L 610.330038 336.764707 
L 610.427511 335.740246 
L 610.524703 335.740246 
L 610.621618 334.547668 
L 610.718256 334.547668 
L 610.81462 333.388484 
L 610.910711 333.388484 
L 611.006529 332.264673 
L 611.102078 332.264673 
L 611.197358 331.191571 
L 611.292371 331.191571 
L 611.387119 330.265287 
L 611.481602 330.265287 
L 611.575823 329.446134 
L 611.669783 329.446134 
L 611.763483 328.654254 
L 611.856924 328.654254 
L 611.950109 327.88789 
L 612.043038 327.88789 
L 612.135713 327.303389 
L 612.228136 327.303389 
L 612.320307 326.749499 
L 612.412228 326.749499 
L 612.503901 326.208214 
L 612.595326 326.208214 
L 612.686505 325.678974 
L 612.77744 325.678974 
L 612.868132 325.161253 
L 612.958581 325.161253 
L 613.04879 324.678459 
L 613.138759 324.678459 
L 613.22849 324.299449 
L 613.317984 324.299449 
L 613.407243 324.023234 
L 613.496267 324.023234 
L 613.585058 323.796127 
L 622.636364 323.715805 
L 622.636364 323.715805 
" clip-path="url(#pfc832b590d)" style="fill: none; stroke: #ffa500; stroke-width: 1.5; stroke-linecap: square"/>
   </g>
   <g id="LineCollection_2">
    <path d="M -1 82.550764 
L 365.336461 82.550764 
" clip-path="url(#pfc832b590d)" style="fill: none; stroke-dasharray: 5.55,2.4; stroke-dashoffset: 0; stroke: #ffa500; stroke-width: 1.5"/>
   </g>
   <g id="LineCollection_3">
    <path d="M 579.195763 342.335102 
L 622.636364 342.335102 
" clip-path="url(#pfc832b590d)" style="fill: none; stroke-dasharray: 5.55,2.4; stroke-dashoffset: 0; stroke: #008000; stroke-width: 1.5"/>
   </g>
   <g id="LineCollection_4">
    <path d="M 514.682625 378.882165 
L 622.636364 378.882165 
" clip-path="url(#pfc832b590d)" style="fill: none; stroke-dasharray: 5.55,2.4; stroke-dashoffset: 0; stroke: #0000ff; stroke-width: 1.5"/>
   </g>
   <g id="LineCollection_5">
    <path d="M 560.024204 391.401656 
L 622.636364 391.401656 
" clip-path="url(#pfc832b590d)" style="fill: none; stroke-dasharray: 5.55,2.4; stroke-dashoffset: 0; stroke: #ff0000; stroke-width: 1.5"/>
   </g>
   <g id="LineCollection_6">
    <path d="M 617.083446 257.960666 
L 622.636364 257.960666 
" clip-path="url(#pfc832b590d)" style="fill: none; stroke-dasharray: 5.55,2.4; stroke-dashoffset: 0; stroke: #800080; stroke-width: 1.5"/>
   </g>
   <g id="LineCollection_7">
    <path d="M 622.636364 323.715805 
L 622.636364 323.715805 
" clip-path="url(#pfc832b590d)" style="fill: none; stroke-dasharray: 5.55,2.4; stroke-dashoffset: 0; stroke: #ffa500; stroke-width: 1.5"/>
   </g>
   <g id="patch_3">
    <path d="M 90 448.56 
L 90 60.48 
" style="fill: none; stroke: #000000; stroke-width: 0.8; stroke-linejoin: miter; stroke-linecap: square"/>
   </g>
   <g id="patch_4">
    <path d="M 648 448.56 
L 648 60.48 
" style="fill: none; stroke: #000000; stroke-width: 0.8; stroke-linejoin: miter; stroke-linecap: square"/>
   </g>
   <g id="patch_5">
    <path d="M 90 448.56 
L 648 448.56 
" style="fill: none; stroke: #000000; stroke-width: 0.8; stroke-linejoin: miter; stroke-linecap: square"/>
   </g>
   <g id="patch_6">
    <path d="M 90 60.48 
L 648 60.48 
" style="fill: none; stroke: #000000; stroke-width: 0.8; stroke-linejoin: miter; stroke-linecap: square"/>
   </g>
   <g id="text_17">
    <!-- picus_viridis -->
    <g transform="translate(332.34375 54.48)scale(0.12 -0.12)">
     <defs>
      <path id="DejaVuSans-5f" d="M 3263 -1063 
L 3263 -1509 
L -63 -1509 
L -63 -1063 
L 3263 -1063 
z
" transform="scale(0.015625)"/>
      <path id="DejaVuSans-64" d="M 2906 2969 
L 2906 4863 
L 3481 4863 
L 3481 0 
L 2906 0 
L 2906 525 
Q 2725 213 2448 61 
Q 2172 -91 1784 -91 
Q 1150 -91 751 415 
Q 353 922 353 1747 
Q 353 2572 751 3078 
Q 1150 3584 1784 3584 
Q 2172 3584 2448 3432 
Q 2725 3281 2906 2969 
z
M 947 1747 
Q 947 1113 1208 752 
Q 1469 391 1925 391 
Q 2381 391 2643 752 
Q 2906 1113 2906 1747 
Q 2906 2381 2643 2742 
Q 2381 3103 1925 3103 
Q 1469 3103 1208 2742 
Q 947 2381 947 1747 
z
" transform="scale(0.015625)"/>
     </defs>
     <use xlink:href="#DejaVuSans-70"/>
     <use xlink:href="#DejaVuSans-69" x="63.476562"/>
     <use xlink:href="#DejaVuSans-63" x="91.259766"/>
     <use xlink:href="#DejaVuSans-75" x="146.240234"/>
     <use xlink:href="#DejaVuSans-73" x="209.619141"/>
     <use xlink:href="#DejaVuSans-5f" x="261.71875"/>
     <use xlink:href="#DejaVuSans-76" x="311.71875"/>
     <use xlink:href="#DejaVuSans-69" x="370.898438"/>
     <use xlink:href="#DejaVuSans-72" x="398.681641"/>
     <use xlink:href="#DejaVuSans-69" x="439.794922"/>
     <use xlink:href="#DejaVuSans-64" x="467.578125"/>
     <use xlink:href="#DejaVuSans-69" x="531.054688"/>
     <use xlink:href="#DejaVuSans-73" x="558.837891"/>
    </g>
   </g>
   <g id="legend_1">
    <g id="patch_7">
     <path d="M 540.279688 141.870625 
L 641 141.870625 
Q 643 141.870625 643 139.870625 
L 643 67.48 
Q 643 65.48 641 65.48 
L 540.279688 65.48 
Q 538.279688 65.48 538.279688 67.48 
L 538.279688 139.870625 
Q 538.279688 141.870625 540.279688 141.870625 
z
" style="fill: #ffffff; opacity: 0.8; stroke: #cccccc; stroke-linejoin: miter"/>
    </g>
    <g id="line2d_134">
     <path d="M 542.279688 73.578438 
L 552.279688 73.578438 
L 562.279688 73.578438 
" style="fill: none; stroke: #008000; stroke-width: 1.5; stroke-linecap: square"/>
    </g>
    <g id="text_18">
     <!-- $\partial$a$\partial$i -->
     <g transform="translate(570.279688 77.078438)scale(0.1 -0.1)">
      <defs>
       <path id="DejaVuSans-2202" d="M 1366 -91 
Q 925 -91 638 175 
Q 297 491 297 1063 
Q 297 1656 597 2119 
Q 906 2594 1463 2594 
Q 1828 2594 2116 2366 
Q 2284 2231 2400 2006 
Q 2441 2259 2441 2547 
Q 2441 2969 2341 3213 
Q 2119 3753 1531 3753 
Q 1309 3753 966 3616 
L 966 4141 
Q 1328 4238 1653 4238 
Q 2491 4238 2847 3469 
Q 3013 3106 3013 2566 
Q 3013 2213 2934 1803 
Q 2738 778 2228 291 
Q 1828 -91 1366 -91 
z
M 831 969 
Q 831 656 969 488 
Q 1116 309 1341 309 
Q 1541 309 1700 450 
Q 1925 644 2091 959 
Q 2228 1219 2297 1497 
Q 2019 2169 1538 2169 
Q 1125 2169 944 1625 
Q 831 1288 831 969 
z
" transform="scale(0.015625)"/>
      </defs>
      <use xlink:href="#DejaVuSans-2202" transform="translate(0 0.015625)"/>
      <use xlink:href="#DejaVuSans-61" transform="translate(51.708984 0.015625)"/>
      <use xlink:href="#DejaVuSans-2202" transform="translate(112.988281 0.015625)"/>
      <use xlink:href="#DejaVuSans-69" transform="translate(164.697266 0.015625)"/>
     </g>
    </g>
    <g id="line2d_135">
     <path d="M 542.279688 88.256563 
L 552.279688 88.256563 
L 562.279688 88.256563 
" style="fill: none; stroke: #0000ff; stroke-width: 1.5; stroke-linecap: square"/>
    </g>
    <g id="text_19">
     <!-- SMC++ -->
     <g transform="translate(570.279688 91.756563)scale(0.1 -0.1)">
      <defs>
       <path id="DejaVuSans-53" d="M 3425 4513 
L 3425 3897 
Q 3066 4069 2747 4153 
Q 2428 4238 2131 4238 
Q 1616 4238 1336 4038 
Q 1056 3838 1056 3469 
Q 1056 3159 1242 3001 
Q 1428 2844 1947 2747 
L 2328 2669 
Q 3034 2534 3370 2195 
Q 3706 1856 3706 1288 
Q 3706 609 3251 259 
Q 2797 -91 1919 -91 
Q 1588 -91 1214 -16 
Q 841 59 441 206 
L 441 856 
Q 825 641 1194 531 
Q 1563 422 1919 422 
Q 2459 422 2753 634 
Q 3047 847 3047 1241 
Q 3047 1584 2836 1778 
Q 2625 1972 2144 2069 
L 1759 2144 
Q 1053 2284 737 2584 
Q 422 2884 422 3419 
Q 422 4038 858 4394 
Q 1294 4750 2059 4750 
Q 2388 4750 2728 4690 
Q 3069 4631 3425 4513 
z
" transform="scale(0.015625)"/>
       <path id="DejaVuSans-4d" d="M 628 4666 
L 1569 4666 
L 2759 1491 
L 3956 4666 
L 4897 4666 
L 4897 0 
L 4281 0 
L 4281 4097 
L 3078 897 
L 2444 897 
L 1241 4097 
L 1241 0 
L 628 0 
L 628 4666 
z
" transform="scale(0.015625)"/>
       <path id="DejaVuSans-43" d="M 4122 4306 
L 4122 3641 
Q 3803 3938 3442 4084 
Q 3081 4231 2675 4231 
Q 1875 4231 1450 3742 
Q 1025 3253 1025 2328 
Q 1025 1406 1450 917 
Q 1875 428 2675 428 
Q 3081 428 3442 575 
Q 3803 722 4122 1019 
L 4122 359 
Q 3791 134 3420 21 
Q 3050 -91 2638 -91 
Q 1578 -91 968 557 
Q 359 1206 359 2328 
Q 359 3453 968 4101 
Q 1578 4750 2638 4750 
Q 3056 4750 3426 4639 
Q 3797 4528 4122 4306 
z
" transform="scale(0.015625)"/>
       <path id="DejaVuSans-2b" d="M 2944 4013 
L 2944 2272 
L 4684 2272 
L 4684 1741 
L 2944 1741 
L 2944 0 
L 2419 0 
L 2419 1741 
L 678 1741 
L 678 2272 
L 2419 2272 
L 2419 4013 
L 2944 4013 
z
" transform="scale(0.015625)"/>
      </defs>
      <use xlink:href="#DejaVuSans-53"/>
      <use xlink:href="#DejaVuSans-4d" x="63.476562"/>
      <use xlink:href="#DejaVuSans-43" x="149.755859"/>
      <use xlink:href="#DejaVuSans-2b" x="219.580078"/>
      <use xlink:href="#DejaVuSans-2b" x="303.369141"/>
     </g>
    </g>
    <g id="line2d_136">
     <path d="M 542.279688 102.934687 
L 552.279688 102.934687 
L 562.279688 102.934687 
" style="fill: none; stroke: #ff0000; stroke-width: 1.5; stroke-linecap: square"/>
    </g>
    <g id="text_20">
     <!-- StairwayPlot2 -->
     <g transform="translate(570.279688 106.434687)scale(0.1 -0.1)">
      <defs>
       <path id="DejaVuSans-77" d="M 269 3500 
L 844 3500 
L 1563 769 
L 2278 3500 
L 2956 3500 
L 3675 769 
L 4391 3500 
L 4966 3500 
L 4050 0 
L 3372 0 
L 2619 2869 
L 1863 0 
L 1184 0 
L 269 3500 
z
" transform="scale(0.015625)"/>
       <path id="DejaVuSans-50" d="M 1259 4147 
L 1259 2394 
L 2053 2394 
Q 2494 2394 2734 2622 
Q 2975 2850 2975 3272 
Q 2975 3691 2734 3919 
Q 2494 4147 2053 4147 
L 1259 4147 
z
M 628 4666 
L 2053 4666 
Q 2838 4666 3239 4311 
Q 3641 3956 3641 3272 
Q 3641 2581 3239 2228 
Q 2838 1875 2053 1875 
L 1259 1875 
L 1259 0 
L 628 0 
L 628 4666 
z
" transform="scale(0.015625)"/>
      </defs>
      <use xlink:href="#DejaVuSans-53"/>
      <use xlink:href="#DejaVuSans-74" x="63.476562"/>
      <use xlink:href="#DejaVuSans-61" x="102.685547"/>
      <use xlink:href="#DejaVuSans-69" x="163.964844"/>
      <use xlink:href="#DejaVuSans-72" x="191.748047"/>
      <use xlink:href="#DejaVuSans-77" x="232.861328"/>
      <use xlink:href="#DejaVuSans-61" x="314.648438"/>
      <use xlink:href="#DejaVuSans-79" x="375.927734"/>
      <use xlink:href="#DejaVuSans-50" x="435.107422"/>
      <use xlink:href="#DejaVuSans-6c" x="495.410156"/>
      <use xlink:href="#DejaVuSans-6f" x="523.193359"/>
      <use xlink:href="#DejaVuSans-74" x="584.375"/>
      <use xlink:href="#DejaVuSans-32" x="623.583984"/>
     </g>
    </g>
    <g id="line2d_137">
     <path d="M 542.279688 117.612813 
L 552.279688 117.612813 
L 562.279688 117.612813 
" style="fill: none; stroke: #800080; stroke-width: 1.5; stroke-linecap: square"/>
    </g>
    <g id="text_21">
     <!-- MSMC2 -->
     <g transform="translate(570.279688 121.112813)scale(0.1 -0.1)">
      <use xlink:href="#DejaVuSans-4d"/>
      <use xlink:href="#DejaVuSans-53" x="86.279297"/>
      <use xlink:href="#DejaVuSans-4d" x="149.755859"/>
      <use xlink:href="#DejaVuSans-43" x="236.035156"/>
      <use xlink:href="#DejaVuSans-32" x="305.859375"/>
     </g>
    </g>
    <g id="line2d_138">
     <path d="M 542.279688 132.290938 
L 552.279688 132.290938 
L 562.279688 132.290938 
" style="fill: none; stroke: #ffa500; stroke-width: 1.5; stroke-linecap: square"/>
    </g>
    <g id="text_22">
     <!-- PSMC (avg) -->
     <g transform="translate(570.279688 135.790938)scale(0.1 -0.1)">
      <use xlink:href="#DejaVuSans-50"/>
      <use xlink:href="#DejaVuSans-53" x="60.302734"/>
      <use xlink:href="#DejaVuSans-4d" x="123.779297"/>
      <use xlink:href="#DejaVuSans-43" x="210.058594"/>
      <use xlink:href="#DejaVuSans-20" x="279.882812"/>
      <use xlink:href="#DejaVuSans-28" x="311.669922"/>
      <use xlink:href="#DejaVuSans-61" x="350.683594"/>
      <use xlink:href="#DejaVuSans-76" x="411.962891"/>
      <use xlink:href="#DejaVuSans-67" x="471.142578"/>
      <use xlink:href="#DejaVuSans-29" x="534.619141"/>
     </g>
    </g>
   </g>
  </g>
 </g>
 <defs>
  <clipPath id="pfc832b590d">
   <rect x="90" y="60.48" width="558" height="388.08"/>
  </clipPath>
 </defs>
</svg>
